<?xml version="1.0" encoding="UTF-8" standalone="no"?>
<!-- Created with Inkscape (http://www.inkscape.org/) -->

<svg
   xmlns:dc="http://purl.org/dc/elements/1.1/"
   xmlns:cc="http://creativecommons.org/ns#"
   xmlns:rdf="http://www.w3.org/1999/02/22-rdf-syntax-ns#"
   xmlns:svg="http://www.w3.org/2000/svg"
   xmlns="http://www.w3.org/2000/svg"
   xmlns:sodipodi="http://sodipodi.sourceforge.net/DTD/sodipodi-0.dtd"
   xmlns:inkscape="http://www.inkscape.org/namespaces/inkscape"
   version="1.1"
   id="svg4478"
   xml:space="preserve"
   width="529.68585"
   height="466.35245"
   viewBox="0 0 529.68585 466.35245"
   sodipodi:docname="dolphin-orange.svg"
   inkscape:version="0.92.5 (2060ec1f9f, 2020-04-08)"><metadata
     id="metadata4484"><rdf:RDF><cc:Work
         rdf:about=""><dc:format>image/svg+xml</dc:format><dc:type
           rdf:resource="http://purl.org/dc/dcmitype/StillImage" /><dc:title></dc:title></cc:Work></rdf:RDF></metadata><defs
     id="defs4482" /><sodipodi:namedview
     pagecolor="#ffffff"
     bordercolor="#111111"
     borderopacity="1"
     objecttolerance="10"
     gridtolerance="10"
     guidetolerance="10"
     inkscape:pageopacity="0"
     inkscape:pageshadow="2"
     inkscape:window-width="1920"
     inkscape:window-height="1010"
     id="namedview4480"
     showgrid="false"
     fit-margin-top="0"
     fit-margin-left="0"
     fit-margin-right="0"
     fit-margin-bottom="0"
     inkscape:pagecheckerboard="true"
     inkscape:zoom="1.3460076"
     inkscape:cx="478.73887"
     inkscape:cy="261.94261"
     inkscape:window-x="0"
     inkscape:window-y="34"
     inkscape:window-maximized="1"
     inkscape:current-layer="g4488" /><g
     id="g4486"
     inkscape:groupmode="layer"
     inkscape:label="ink_ext_XXXXXX"
     transform="matrix(1.3333333,0,0,-1.3333333,0.00146548,701.33564)"><g
       id="g4488"
       transform="scale(0.1)"><path
         d="m 65.6992,1762.66 c 22.1094,-5.24 45.4728,62.42 64.4998,128.71 l -95.9373,-24.18 c 1.25,-5.35 2.5,-10.67 3.7891,-15.94 3.2383,-13.13 22.0703,-87.3 27.6484,-88.59"
         style="fill:#b5511f;fill-opacity:1;fill-rule:nonzero;stroke:none"
         id="path4490"
         inkscape:connector-curvature="0" /><path
         d="m 3968.01,4259.84 c 5.94,20.24 6.05,25.71 0.94,45.78 -6.53,25.63 -31.72,63.91 -64.42,101.72 l 46.37,-180.11 c 7.69,9.65 13.63,20.74 17.11,32.61"
         style="fill:#b49a1d;fill-opacity:1;fill-rule:nonzero;stroke:none"
         id="path4492"
         inkscape:connector-curvature="0" /><path
         d="m 3713.01,4609.69 c -1.21,5.23 -2.46,10.7 -3.63,16.17 -8.76,41.02 -17.82,67.66 -40,117.85 -36.61,82.77 -47.43,102.42 -82.62,144.22 l -148.28,-38.95 274.53,-239.29"
         style="fill:#cb631d;fill-opacity:1;fill-rule:nonzero;stroke:none"
         id="path4494"
         inkscape:connector-curvature="0" /><path
         d="m 3586.76,4887.93 c -2.38,2.77 -4.85,5.66 -7.38,8.67 -27.15,31.68 -53.29,56.72 -85.51,80.31 l -55.39,-127.93 148.28,38.95"
         style="fill:#cb3a21;fill-opacity:1;fill-rule:nonzero;stroke:none"
         id="path4496"
         inkscape:connector-curvature="0" /><path
         d="m 3902.34,4194.45 c 18.95,5.24 36.06,17.11 48.56,32.78 l -46.37,180.11 c -6.64,7.7 -13.55,15.36 -20.74,22.86 l -91.29,-230.9 c 47.77,-8.17 88.95,-10.59 109.84,-4.85"
         style="fill:#b3c61a;fill-opacity:1;fill-rule:nonzero;stroke:none"
         id="path4498"
         inkscape:connector-curvature="0" /><path
         d="m 3493.87,4976.91 c -20.86,15.32 -44.34,29.97 -72.31,45.43 l 16.92,-173.36 55.39,127.93"
         style="fill:#d03422;fill-opacity:1;fill-rule:nonzero;stroke:none"
         id="path4500"
         inkscape:connector-curvature="0" /><path
         d="m 3309.26,4309.06 c 5.74,-0.54 11.52,-1.13 17.26,-1.76 126.88,-13.94 230.78,-35.93 305.9,-64.72 49.69,-19.1 108.71,-34.53 160.08,-43.28 l 91.29,230.9 c -7.66,8.04 -15.51,15.93 -23.52,23.55 l -622.81,15.31 71.8,-160"
         style="fill:#c8c615;fill-opacity:1;fill-rule:nonzero;stroke:none"
         id="path4502"
         inkscape:connector-curvature="0" /><path
         d="m 3237.46,4469.06 622.81,-15.31 c -20.35,19.37 -41.52,36.91 -61.68,50.51 -46.52,31.36 -66.05,47.22 -72.54,58.86 -2.38,4.38 -7.77,23.79 -13.04,46.57 l -274.53,239.29 -201.02,-379.92"
         style="fill:#d39218;fill-opacity:1;fill-rule:nonzero;stroke:none"
         id="path4504"
         inkscape:connector-curvature="0" /><path
         d="m 2652.54,4187.62 101.56,-278.87 c 7.03,14.41 13.48,28.63 18.83,42.03 30.04,74.88 40.16,118.6 51.21,221.17 8.4,77.78 9.96,85.86 18.48,95.67 14.92,17.11 29.65,21.79 99.1,31.68 80.55,11.48 159.02,16.91 235.9,16.48 l 59.84,153.28 -584.92,-281.44"
         style="fill:#dfe50b;fill-opacity:1;fill-rule:nonzero;stroke:none"
         id="path4506"
         inkscape:connector-curvature="0" /><path
         d="m 3177.62,4315.78 c 44.41,-0.23 88.28,-2.5 131.64,-6.72 l -71.8,160 -59.84,-153.28"
         style="fill:#c0df14;fill-opacity:1;fill-rule:nonzero;stroke:none"
         id="path4508"
         inkscape:connector-curvature="0" /><path
         d="m 2941.41,5204.22 c -27.7,6.56 -55.98,12.77 -84.93,18.59 -68.2,13.67 -187.89,26.76 -291.56,33.17 l 13.24,-441.18 363.25,389.42"
         style="fill:#e83e1f;fill-opacity:1;fill-rule:nonzero;stroke:none"
         id="path4510"
         inkscape:connector-curvature="0" /><path
         d="m 3438.48,4848.98 -16.92,173.36 c -18.55,10.28 -39.1,20.9 -62.22,32.31 -133.72,65.78 -267.19,113.67 -417.93,149.57 l -363.25,-389.42 860.32,34.18"
         style="fill:#e6521d;fill-opacity:1;fill-rule:nonzero;stroke:none"
         id="path4512"
         inkscape:connector-curvature="0" /><path
         d="m 3438.48,4848.98 -860.32,-34.18 659.3,-345.74 z"
         style="fill:#e78c14;fill-opacity:1;fill-rule:nonzero;stroke:none"
         id="path4514"
         inkscape:connector-curvature="0" /><path
         d="m 3237.46,4469.06 -659.3,345.74 74.38,-627.18 z"
         style="fill:#efae0e;fill-opacity:1;fill-rule:nonzero;stroke:none"
         id="path4516"
         inkscape:connector-curvature="0" /><path
         d="m 2446.25,3874.8 c 8.16,-41.56 15.86,-60.58 18.2,-85.39 2.23,-23.67 -1.91,-58.51 -8.04,-96.17 l 128.12,-40.58 c 38.87,56.48 72.42,108.47 82.42,118.94 25.2,26.37 60.75,83.09 87.15,137.15 l -101.56,278.87 -206.29,-312.82"
         style="fill:#e4ea10;fill-opacity:1;fill-rule:nonzero;stroke:none"
         id="path4518"
         inkscape:connector-curvature="0" /><path
         d="m 2652.54,4187.62 -74.38,627.18 -257.3,-508.59 z"
         style="fill:#f8b40b;fill-opacity:1;fill-rule:nonzero;stroke:none"
         id="path4520"
         inkscape:connector-curvature="0" /><path
         d="m 2432.27,3550.94 25.66,-54.3 c 31.13,21.45 82.3,91.64 126.6,156.02 l -128.12,40.58 c -7.97,-48.86 -19.22,-102.42 -24.14,-142.3"
         style="fill:#c4e013;fill-opacity:1;fill-rule:nonzero;stroke:none"
         id="path4522"
         inkscape:connector-curvature="0" /><path
         d="m 2420.86,5259.77 c -77.7,-0.94 -154.81,-4.26 -230.86,-9.85 l 64.53,-529.61 166.33,539.46"
         style="fill:#f03d1e;fill-opacity:1;fill-rule:nonzero;stroke:none"
         id="path4524"
         inkscape:connector-curvature="0" /><path
         d="m 2578.16,4814.8 -13.24,441.18 c -43.98,2.69 -85.12,4.22 -118.16,4.02 -8.64,-0.04 -17.27,-0.12 -25.9,-0.23 l -166.33,-539.46 323.63,94.49"
         style="fill:#f2551a;fill-opacity:1;fill-rule:nonzero;stroke:none"
         id="path4526"
         inkscape:connector-curvature="0" /><path
         d="m 2578.16,4814.8 -323.63,-94.49 66.33,-414.1 z"
         style="fill:#f89b0f;fill-opacity:1;fill-rule:nonzero;stroke:none"
         id="path4528"
         inkscape:connector-curvature="0" /><path
         d="m 2320.86,4306.21 5.31,-109.22 c 24.34,-7.61 45.31,-21.29 55,-36.21 16.17,-24.96 45.63,-144.37 55.55,-225.16 3.05,-24.84 6.33,-44.57 9.53,-60.82 l 206.29,312.82 -331.68,118.59"
         style="fill:#f6e404;fill-opacity:1;fill-rule:nonzero;stroke:none"
         id="path4530"
         inkscape:connector-curvature="0" /><path
         d="M 2254.53,4720.31 2190,5249.92 c -157.97,-11.64 -311.45,-33.2 -456.52,-64.26 l -166.45,-242.22 687.5,-223.13"
         style="fill:#f2531b;fill-opacity:1;fill-rule:nonzero;stroke:none"
         id="path4532"
         inkscape:connector-curvature="0" /><path
         d="m 2441.09,3490.08 c 4.53,-0.35 10.24,2.03 16.84,6.56 l -25.66,54.3 c -4.34,-35.35 -3.68,-59.92 8.82,-60.86"
         style="fill:#e1e910;fill-opacity:1;fill-rule:nonzero;stroke:none"
         id="path4534"
         inkscape:connector-curvature="0" /><path
         d="m 1733.48,5185.66 c -27.93,-5.97 -55.55,-12.26 -82.86,-18.94 -32.89,-8.09 -64.64,-16.33 -95.85,-24.92 l 12.26,-198.36 166.45,242.22"
         style="fill:#f1481d;fill-opacity:1;fill-rule:nonzero;stroke:none"
         id="path4536"
         inkscape:connector-curvature="0" /><path
         d="m 1514.8,4450.94 105.82,-456.02 c 19.5,10.35 38.99,20.43 58.44,30.16 202.54,101.09 331.41,141.99 530.59,168.32 10.74,1.4 20.27,2.65 28.75,3.71 l 82.46,109.1 -806.06,144.73"
         style="fill:#f9e206;fill-opacity:1;fill-rule:nonzero;stroke:none"
         id="path4538"
         inkscape:connector-curvature="0" /><path
         d="m 2238.4,4197.11 c 49.14,6.13 62.81,6.25 78.24,2.58 3.2,-0.78 6.41,-1.68 9.53,-2.7 l -5.31,109.22 -82.46,-109.1"
         style="fill:#f5f014;fill-opacity:1;fill-rule:nonzero;stroke:none"
         id="path4540"
         inkscape:connector-curvature="0" /><path
         d="m 2320.86,4306.21 -66.33,414.1 -739.73,-269.37 z"
         style="fill:#f9ad0c;fill-opacity:1;fill-rule:nonzero;stroke:none"
         id="path4542"
         inkscape:connector-curvature="0" /><path
         d="m 2254.53,4720.31 -687.5,223.13 -52.23,-492.5 z"
         style="fill:#f78f11;fill-opacity:1;fill-rule:nonzero;stroke:none"
         id="path4544"
         inkscape:connector-curvature="0" /><path
         d="m 1050.43,3715.23 108.63,-30.5 c 30,26.99 64.34,53.67 117.35,92.85 109.61,81.01 226.48,154.72 344.21,217.34 l -105.82,456.02 -464.37,-735.71"
         style="fill:#f9dd05;fill-opacity:1;fill-rule:nonzero;stroke:none"
         id="path4546"
         inkscape:connector-curvature="0" /><path
         d="m 994.531,3499.1 c 24.729,33.13 50.739,65.2 77.969,96.02 14.34,16.29 27.07,30.35 39.26,43.24 l -61.33,76.87 -55.899,-216.13"
         style="fill:#f4dd06;fill-opacity:1;fill-rule:nonzero;stroke:none"
         id="path4548"
         inkscape:connector-curvature="0" /><path
         d="m 1111.76,3638.36 c 16.01,16.91 31.01,31.68 47.3,46.37 l -108.63,30.5 61.33,-76.87"
         style="fill:#f8ee08;fill-opacity:1;fill-rule:nonzero;stroke:none"
         id="path4550"
         inkscape:connector-curvature="0" /><path
         d="m 1567.03,4943.44 -12.26,198.36 c -121.84,-33.52 -234.57,-72.46 -368.05,-126.49 -62.93,-25.51 -119.34,-45.97 -125.31,-45.51 -2.5,0.16 -9.03,2.82 -17.82,7.08 l -89.641,-107.82 613.081,74.38"
         style="fill:#f2551a;fill-opacity:1;fill-rule:nonzero;stroke:none"
         id="path4552"
         inkscape:connector-curvature="0" /><path
         d="M 1514.8,4450.94 676.559,4237.89 1050.43,3715.23 Z"
         style="fill:#fab30b;fill-opacity:1;fill-rule:nonzero;stroke:none"
         id="path4554"
         inkscape:connector-curvature="0" /><path
         d="m 1043.59,4976.88 c -12.03,5.85 -28.36,14.72 -44.801,24.45 -21.09,12.54 -42.34,24.06 -63.789,34.65 l 18.949,-166.92 89.641,107.82"
         style="fill:#f14a1c;fill-opacity:1;fill-rule:nonzero;stroke:none"
         id="path4556"
         inkscape:connector-curvature="0" /><path
         d="m 1403.09,2511.09 -43.64,1.64 c 28.6,-3.67 40.24,-5.39 43.64,-1.64"
         style="fill:#c3b718;fill-opacity:1;fill-rule:nonzero;stroke:none"
         id="path4558"
         inkscape:connector-curvature="0" /><path
         d="m 720.23,2496.56 c 61.372,20.63 128.211,31.84 205.668,31.72 7.114,0 14.024,0 20.782,-0.04 l -239.961,9.06 13.511,-40.74"
         style="fill:#c3b718;fill-opacity:1;fill-rule:nonzero;stroke:none"
         id="path4560"
         inkscape:connector-curvature="0" /><path
         d="m 946.68,2528.24 c 104.3,-0.12 172.27,-0.12 214.1,-0.04 102.7,-3.63 163.52,-11.01 198.67,-15.47 l 43.64,-1.64 c 2.3,2.5 0.86,7.54 -1.64,16.21 -7.9,27.39 -316.02,175.51 -337.58,188.6 -25.28,15.31 -137.85,44.26 -214.608,55.15 -23.91,3.4 -42.621,6.41 -57.703,9.54 l -84.84,-243.29 239.961,-9.06"
         style="fill:#d4c611;fill-opacity:1;fill-rule:nonzero;stroke:none"
         id="path4562"
         inkscape:connector-curvature="0" /><path
         d="M 1567.03,4943.44 953.949,4869.06 1514.8,4450.94 Z"
         style="fill:#f47515;fill-opacity:1;fill-rule:nonzero;stroke:none"
         id="path4564"
         inkscape:connector-curvature="0" /><path
         d="M 953.949,4869.06 676.559,4237.89 1514.8,4450.94 Z"
         style="fill:#f68712;fill-opacity:1;fill-rule:nonzero;stroke:none"
         id="path4566"
         inkscape:connector-curvature="0" /><path
         d="m 935,5035.98 c -99.801,49.22 -203.828,77.46 -316.801,86.17 -1.129,0.08 -2.219,0.15 -3.359,0.23 L 953.949,4869.06 935,5035.98"
         style="fill:#f03f1e;fill-opacity:1;fill-rule:nonzero;stroke:none"
         id="path4568"
         inkscape:connector-curvature="0" /><path
         d="m 614.84,5122.38 c -100.27,7.46 -180.539,1.92 -222.77,-15.47 -35.39,-14.61 -252.89,-76.32 -263.949,-110.11 -11.09,-33.87 63.25,-47.5 96.488,-63.05 49.571,-23.16 94.45,-41.68 138.36,-63.28 l 590.98,-1.41 -339.109,253.32"
         style="fill:#f03e1e;fill-opacity:1;fill-rule:nonzero;stroke:none"
         id="path4570"
         inkscape:connector-curvature="0" /><path
         d="m 316.719,3719.26 456.172,-632.5 c 53.199,147.73 128.359,287.62 221.64,412.34 l 55.899,216.13 -733.711,4.03"
         style="fill:#fab10b;fill-opacity:1;fill-rule:nonzero;stroke:none"
         id="path4572"
         inkscape:connector-curvature="0" /><path
         d="m 676.559,4237.89 -359.84,-518.63 733.711,-4.03 z"
         style="fill:#f8a10e;fill-opacity:1;fill-rule:nonzero;stroke:none"
         id="path4574"
         inkscape:connector-curvature="0" /><path
         d="m 953.949,4869.06 -590.98,1.41 c 18.672,-9.18 37.191,-18.91 55.781,-29.77 60.859,-35.58 114.34,-75.15 165.43,-122.38 44.058,-40.7 52.269,-53.63 48.55,-76.44 -1.519,-9.18 -24.679,-57.23 -54.64,-113.13 -20,-37.34 -39.34,-75.59 -58.25,-115.2 l 156.719,-175.66 277.39,631.17"
         style="fill:#f36418;fill-opacity:1;fill-rule:nonzero;stroke:none"
         id="path4576"
         inkscape:connector-curvature="0" /><path
         d="m 772.891,3086.76 -456.172,632.5 -70,-174.77 c -0.668,-6.44 -1.328,-12.97 -1.949,-19.65 -18.36,-187.14 -12.782,-346.48 21.05,-525.04 l 471.641,-24.18 c 10.43,37.47 22.269,74.54 35.43,111.14"
         style="fill:#f68c11;fill-opacity:1;fill-rule:nonzero;stroke:none"
         id="path4578"
         inkscape:connector-curvature="0" /><path
         d="m 663.629,2474.38 c 18.441,8.28 37.23,15.7 56.601,22.18 l -13.511,40.74 -43.09,-62.92"
         style="fill:#c1801b;fill-opacity:1;fill-rule:nonzero;stroke:none"
         id="path4580"
         inkscape:connector-curvature="0" /><path
         d="m 791.559,2780.59 c -41.598,8.71 -54.758,18.51 -68.399,41.17 -13.629,22.54 -12.93,47.07 3.168,111.79 3.512,14.07 7.223,28.09 11.133,42.07 L 265.82,2999.8 c 10.981,-57.96 24.918,-117.92 42.032,-181.52 l 398.867,-280.98 84.84,243.29"
         style="fill:#e69e12;fill-opacity:1;fill-rule:nonzero;stroke:none"
         id="path4582"
         inkscape:connector-curvature="0" /><path
         d="M 676.559,4237.89 432.23,4212.54 c -18.789,-47.11 -37.5,-96.49 -56.289,-148.75 -42.82,-119.02 -70.472,-203.36 -89.812,-281.13 l 30.59,-63.4 359.84,518.63"
         style="fill:#f57814;fill-opacity:1;fill-rule:nonzero;stroke:none"
         id="path4584"
         inkscape:connector-curvature="0" /><path
         d="m 519.84,4413.55 c -30.039,-62.89 -58.942,-129.25 -87.61,-201.01 l 244.329,25.35 -156.719,175.66"
         style="fill:#f36218;fill-opacity:1;fill-rule:nonzero;stroke:none"
         id="path4586"
         inkscape:connector-curvature="0" /><path
         d="m 440.781,2328.87 c 75.391,60.78 145.739,110.78 222.848,145.51 l 43.09,62.92 L 105.98,2381.48 C 97.8516,2365.94 89.8789,2350.39 82.1094,2334.8 L 206.84,2096.21 c 66.64,98.36 133.199,151.41 233.941,232.66"
         style="fill:#c96c1c;fill-opacity:1;fill-rule:nonzero;stroke:none"
         id="path4588"
         inkscape:connector-curvature="0" /><path
         d="m 307.852,2818.28 c 1.718,-6.4 3.437,-12.85 5.238,-19.33 8.98,-32.58 9.371,-37.66 4.101,-54.93 -3.211,-10.47 -31.25,-58.9 -62.39,-107.73 -58.082,-91.02 -106.09,-173.17 -148.821,-254.81 l 600.739,155.82 -398.867,280.98"
         style="fill:#dd7619;fill-opacity:1;fill-rule:nonzero;stroke:none"
         id="path4590"
         inkscape:connector-curvature="0" /><path
         d="m 286.129,3782.66 c -4.84,-19.54 -9.141,-38.64 -13.039,-57.78 l 43.629,-5.62 -30.59,63.4"
         style="fill:#f35f19;fill-opacity:1;fill-rule:nonzero;stroke:none"
         id="path4592"
         inkscape:connector-curvature="0" /><path
         d="m 273.09,3724.88 c -11.488,-56.13 -19.34,-112.54 -26.371,-180.39 l 70,174.77 -43.629,5.62"
         style="fill:#f36218;fill-opacity:1;fill-rule:nonzero;stroke:none"
         id="path4594"
         inkscape:connector-curvature="0" /><path
         d="m 164.691,2009.69 c 0,0 18.239,50.51 37.11,78.98 1.679,2.58 3.359,5.08 5.039,7.54 L 82.1094,2334.8 c -4.3399,-8.67 -8.6289,-17.3 -12.8477,-25.97 C 16.7617,2201.09 -0.511719,2159.34 0,2105.23 c 0.160156,-16.25 1.55859,-36.99 4.05859,-60.39 L 156.25,1985.47 c 3.32,11.25 6.172,19.76 8.441,24.22"
         style="fill:#c83a21;fill-opacity:1;fill-rule:nonzero;stroke:none"
         id="path4596"
         inkscape:connector-curvature="0" /><path
         d="M 156.25,1985.47 4.05859,2044.84 C 9.57031,1992.73 20.3516,1927.19 34.2617,1867.19 l 95.9373,24.18 c 10.192,35.58 19.18,70.78 26.051,94.1"
         style="fill:#b82523;fill-opacity:1;fill-rule:nonzero;stroke:none"
         id="path4598"
         inkscape:connector-curvature="0" /></g></g></svg>