<svg version="1.1" id="Outlined" xmlns="http://www.w3.org/2000/svg" x="0" y="0" viewBox="0 0 456.49 114.25" xml:space="preserve"><style></style><linearGradient id="SVGID_1_" gradientUnits="userSpaceOnUse" x1="-83.675" y1="531.89" x2="-82.968" y2="531.183"><stop offset="0" stop-color="#20ac4b"/><stop offset=".983" stop-color="#19361a"/></linearGradient><path fill="#38b04a" d="M13.96 14.78h95.99v84.7H13.96z"/><path d="M109.83 14.9v84.46H14.08V14.9h95.75m.24-.24H13.84V99.6H110.07V14.66z" fill="#a1d097"/><path fill="#fff" d="M85.48 50.95H66.86V32.33H55.35v18.62H36.74v11.51h18.61v18.61h11.51V62.46h18.62z"/><path d="M164.89 41.83h-14.43c-.55 0-1 .45-1 1v4.55c0 .55.45 1 1 1h7.84v11.41c-1.44.52-3.82.83-6.54.83-9.96 0-15.9-6.24-15.9-16.68 0-10.25 6.37-16.62 16.62-16.62 3.73 0 6.67.57 9.26 1.79.26.12.56.13.83.01.27-.12.47-.34.55-.62l1.43-4.62a1 1 0 00-.52-1.2c-2.02-.98-6.22-2.11-11.42-2.11-14.79 0-24.73 9.49-24.73 23.62 0 6.89 2.34 13.1 6.42 17.04 4.27 4.08 9.86 6.06 17.07 6.06 6.92 0 12.37-1.89 13.88-2.47.39-.15.64-.52.64-.93V42.83c0-.56-.45-1-1-1zM186.77 40.03a.99.99 0 00.37-.78v-5.4c0-.5-.38-.93-.88-.99l-.14-.02c-.49-.06-.95-.12-1.54-.12-3.24 0-6.18 1.65-8.12 4.39l-.12-2.78a.995.995 0 00-1-.96h-5a.97.97 0 00-.73.32c-.19.2-.29.47-.27.75.18 2.67.26 5.68.26 9.75v21.65c0 .55.45 1 1 1h5.72c.55 0 1-.45 1-1V49.07c0-.9.07-1.81.18-2.49.72-3.98 3.29-6.46 6.69-6.46.73 0 1.26 0 1.73.11.3.06.61-.01.85-.2zM201.68 32.72c-9.28 0-15.76 7.36-15.76 17.9 0 10.28 6.47 16.93 16.47 16.93 5.19 0 8.82-1.14 10.94-2.1.44-.2.68-.69.56-1.16l-1.04-4.1c-.07-.28-.27-.52-.53-.65a.988.988 0 00-.84-.02c-1.74.76-4.09 1.54-8.31 1.54-2.78 0-9.12-.89-9.74-8.92h21.05c.48 0 .89-.34.98-.8.15-.73.21-1.64.21-2.86.01-7.27-3.66-15.76-13.99-15.76zm-.46 6.1c1.99 0 3.58.6 4.75 1.78 1.62 1.65 2.05 4.01 2.15 5.45h-14.51c.74-3.55 3.06-7.23 7.61-7.23zM231.9 32.72c-9.28 0-15.76 7.36-15.76 17.9 0 10.28 6.46 16.93 16.47 16.93 5.19 0 8.82-1.14 10.94-2.1.44-.2.68-.69.56-1.16l-1.04-4.1c-.07-.28-.27-.52-.53-.65a.988.988 0 00-.84-.02c-1.74.76-4.09 1.54-8.31 1.54-2.78 0-9.12-.89-9.74-8.92h21.05c.48 0 .89-.34.98-.8.15-.73.21-1.64.21-2.86.01-7.27-3.65-15.76-13.99-15.76zm-.45 6.1c1.99 0 3.58.6 4.75 1.78 1.62 1.65 2.05 4.01 2.16 5.45h-14.51c.72-3.55 3.04-7.23 7.6-7.23zM265.12 32.72c-4.38 0-7.67 1.95-9.7 4.16l-.16-2.58a.998.998 0 00-1-.94h-5.07a.99.99 0 00-.99 1.07c.18 2.41.26 4.93.26 8.44v22.95c0 .55.45 1 1 1h5.72c.55 0 1-.45 1-1v-18.9c0-.9.12-1.75.34-2.35.84-2.57 3.24-5.16 6.72-5.16 5.19 0 6.28 4.51 6.28 8.3v18.14c0 .55.45 1 1 1h5.72c.55 0 1-.45 1-1V47.12c-.01-10.63-6.53-14.4-12.12-14.4zM316.73 41.83H302.3c-.55 0-1 .45-1 1v4.55c0 .55.45 1 1 1h7.84v11.41c-1.44.52-3.82.83-6.54.83-9.96 0-15.9-6.24-15.9-16.68 0-10.25 6.37-16.62 16.62-16.62 3.73 0 6.67.57 9.26 1.79.26.12.56.13.83.01.27-.12.47-.34.55-.62l1.43-4.62a1 1 0 00-.52-1.2c-2.02-.98-6.22-2.11-11.42-2.11-14.79 0-24.73 9.49-24.73 23.62 0 6.89 2.34 13.1 6.42 17.04 4.27 4.08 9.86 6.06 17.07 6.06 6.92 0 12.37-1.89 13.88-2.47.39-.15.64-.52.64-.93V42.83c0-.56-.45-1-1-1zM335.12 32.72c-9.28 0-15.76 7.36-15.76 17.9 0 10.28 6.46 16.93 16.47 16.93 5.19 0 8.82-1.14 10.94-2.1.44-.2.68-.69.56-1.16l-1.04-4.1c-.07-.28-.27-.52-.53-.65a.988.988 0 00-.84-.02c-1.74.76-4.09 1.54-8.31 1.54-2.78 0-9.12-.89-9.74-8.92h21.05c.48 0 .89-.34.98-.8.15-.73.21-1.64.21-2.86.01-7.27-3.65-15.76-13.99-15.76zm-.45 6.1c1.99 0 3.58.6 4.75 1.78 1.62 1.65 2.05 4.01 2.16 5.45h-14.51c.72-3.55 3.04-7.23 7.6-7.23zM365.22 32.72c-9.28 0-15.76 7.36-15.76 17.9 0 10.28 6.46 16.93 16.47 16.93 5.19 0 8.82-1.14 10.94-2.1.44-.2.68-.69.56-1.16l-1.04-4.1c-.07-.28-.27-.52-.53-.65a.988.988 0 00-.84-.02c-1.74.76-4.09 1.54-8.31 1.54-2.78 0-9.12-.89-9.74-8.92h21.05c.48 0 .89-.34.98-.8.15-.73.21-1.64.21-2.86.01-7.27-3.66-15.76-13.99-15.76zm-.46 6.1c1.99 0 3.58.6 4.75 1.78 1.62 1.65 2.05 4.01 2.16 5.45h-14.51c.73-3.55 3.04-7.23 7.6-7.23zM421.16 46.71c-4.15-1.65-5.28-2.61-5.28-4.47 0-2 1.65-3.29 4.2-3.29 2.75 0 4.88 1.08 5.9 1.73a.992.992 0 001.48-.53l1.37-4.16c.14-.43-.02-.9-.4-1.15-2.02-1.32-5.1-2.11-8.22-2.11-6.87 0-11.86 4.3-11.86 10.23 0 4.35 3.04 7.66 9.03 9.84 4.34 1.63 5.14 2.89 5.14 4.78 0 2.34-1.84 3.68-5.04 3.68-2.66 0-5.48-1.12-7.1-2.07a1.02 1.02 0 00-.87-.07c-.28.11-.5.34-.6.63l-.86 2.69-11.25-15.06 11.52-12.32a.995.995 0 00-.73-1.68h-6.83c-.29 0-.57.13-.76.35l-9.31 10.87c-.35.42-.72.89-1.09 1.36V19.68c0-.55-.45-1-1-1h-5.66c-.55 0-1 .45-1 1v46.15c0 .55.45 1 1 1h5.66c.55 0 1-.45 1-1V54.39l1.84-2.04 10.07 14.07c.19.26.49.42.81.42h7.02c.38 0 .72-.21.89-.55v-.01c2.14.82 4.62 1.28 7.1 1.28 7.71 0 12.7-4.12 12.7-10.49.02-4.88-2.73-8.07-8.87-10.36zM437.93 25.85v-.07c.66-.21 1.17-.66 1.17-1.35 0-.55-.24-.97-.59-1.21-.38-.28-.86-.45-1.93-.45-.93 0-1.66.1-2.17.17v5.66h1.31v-2.24h.62c.72 0 1.07.28 1.17.86.17.69.28 1.17.45 1.38h1.38c-.1-.21-.24-.52-.41-1.38-.18-.75-.45-1.19-1-1.37zm-1.56-.41h-.62v-1.62c.14-.03.38-.07.72-.07.83 0 1.21.34 1.21.86 0 .59-.58.83-1.31.83z"/><path d="M436.65 20.02c-3.28 0-5.87 2.48-5.87 5.66 0 3.17 2.59 5.69 5.83 5.69s5.8-2.52 5.8-5.69c0-3.17-2.55-5.66-5.76-5.66zm0 10.18c-2.52 0-4.42-2-4.42-4.52 0-2.48 1.9-4.52 4.35-4.52 2.52 0 4.38 2.04 4.38 4.55 0 2.49-1.86 4.52-4.31 4.49z"/><g><path d="M272.02 96.8c-.04.14-.1.25-.18.33s-.19.15-.32.19-.31.08-.5.1c-.2.02-.45.03-.74.03-.3 0-.56-.01-.77-.03s-.38-.05-.52-.1-.24-.11-.31-.19-.12-.19-.16-.33l-3.97-14.31h-.03l-3.66 14.31c-.03.14-.08.25-.15.33s-.17.15-.29.19-.29.08-.49.1-.46.03-.77.03c-.32 0-.59-.01-.81-.03s-.39-.05-.53-.1-.24-.11-.31-.19a.722.722 0 01-.15-.33l-5.01-17.5c-.06-.22-.09-.4-.1-.53s.03-.22.12-.29.22-.11.4-.13.43-.03.75-.03c.3 0 .54.01.72.02s.31.04.4.08c.09.04.16.09.19.16s.06.16.08.26l4.26 15.88h.01l4.04-15.85c.03-.11.07-.2.11-.27.04-.07.11-.13.21-.17s.24-.07.42-.09.42-.03.71-.03c.27 0 .49.01.65.03.16.02.29.05.39.09s.17.1.21.17c.04.07.08.16.11.27l4.35 15.85h.03l4.17-15.86c.03-.1.06-.18.09-.26s.09-.13.18-.17.22-.07.4-.09c.17-.02.4-.03.68-.03.29 0 .52.01.7.04.17.02.29.07.37.14s.11.17.11.29-.03.3-.08.53l-5.01 17.49zM291.1 96.32c0 .18-.01.33-.03.46s-.05.24-.1.33-.11.15-.17.19-.13.06-.21.06h-9.1c-.22 0-.44-.08-.64-.23-.2-.15-.3-.42-.3-.8v-16.9c0-.38.1-.65.3-.8.2-.15.41-.23.64-.23h8.99c.08 0 .15.02.21.06.06.04.11.1.15.19s.07.2.09.33.04.3.04.49a2.071 2.071 0 01-.13.78.385.385 0 01-.36.24h-7.41v5.95h6.36c.08 0 .15.02.21.07.06.04.12.1.16.18.04.08.08.19.1.32s.03.3.03.48-.01.33-.03.45-.05.23-.1.31a.44.44 0 01-.16.17c-.06.03-.13.05-.21.05h-6.36v6.78h7.51c.08 0 .15.02.21.06s.12.1.17.18.08.19.1.32.04.31.04.51zM307.7 91.92c0 .6-.08 1.15-.23 1.65s-.36.95-.64 1.35-.6.75-.99 1.05c-.39.3-.82.56-1.3.76-.48.21-1 .36-1.55.46s-1.18.15-1.9.15h-4.95c-.22 0-.44-.08-.64-.23-.2-.15-.3-.42-.3-.8v-16.9c0-.38.1-.65.3-.8.2-.15.41-.23.64-.23h4.31c1.13 0 2.06.11 2.78.32s1.33.53 1.81.94c.48.41.85.91 1.09 1.51s.37 1.27.37 2.02c0 .45-.05.88-.16 1.29s-.27.79-.48 1.14-.47.66-.79.93-.68.5-1.09.67c.52.1 1 .28 1.45.53s.84.59 1.18.99c.34.4.6.87.8 1.41s.29 1.15.29 1.79zm-3.79-8.48c0-.46-.06-.87-.19-1.25-.13-.37-.33-.69-.6-.94-.27-.26-.63-.46-1.07-.59s-1.02-.21-1.74-.21h-2.6v6.14h2.86c.65 0 1.18-.09 1.58-.26s.73-.4.99-.69c.26-.29.46-.62.58-1.01s.19-.78.19-1.19zm1.14 8.63c0-.57-.09-1.06-.27-1.49s-.44-.79-.79-1.08c-.35-.29-.78-.52-1.3-.67s-1.18-.23-1.97-.23h-3.01v6.68h3.66c.57 0 1.08-.07 1.5-.21s.81-.34 1.13-.61c.33-.27.58-.6.77-1 .19-.4.28-.87.28-1.39zM331.96 96.97c0 .08-.02.15-.06.21s-.11.1-.21.14-.23.06-.39.09a4.69 4.69 0 01-1.21 0c-.16-.03-.28-.05-.38-.09s-.17-.08-.21-.14-.06-.13-.06-.21v-8.41h-8.63v8.41c0 .08-.02.15-.06.21s-.11.1-.21.14-.23.06-.39.09c-.16.02-.36.04-.61.04-.23 0-.43-.01-.6-.04s-.3-.05-.4-.09-.17-.08-.21-.14-.06-.13-.06-.21V78.78c0-.08.02-.15.06-.21s.11-.1.21-.14.23-.06.4-.09.37-.04.6-.04c.24 0 .45.01.61.04.16.02.29.05.39.09s.17.08.21.14.06.13.06.21v7.59h8.63v-7.59c0-.08.02-.15.06-.21s.11-.1.21-.14.22-.06.38-.09.36-.04.62-.04c.23 0 .43.01.59.04.16.02.29.05.39.09s.17.08.21.14.06.13.06.21v18.19zM352.88 87.66c0 1.53-.18 2.92-.54 4.15s-.9 2.28-1.62 3.14c-.72.86-1.62 1.53-2.7 1.99s-2.35.7-3.79.7c-1.43 0-2.66-.21-3.7-.64a6.476 6.476 0 01-2.58-1.85c-.68-.81-1.18-1.82-1.52-3.02s-.5-2.58-.5-4.15c0-1.49.18-2.85.54-4.07s.9-2.26 1.63-3.11 1.63-1.51 2.71-1.98 2.35-.7 3.79-.7c1.4 0 2.61.21 3.65.63s1.9 1.03 2.59 1.84 1.2 1.8 1.54 2.99c.33 1.19.5 2.55.5 4.08zm-2.67.17c0-1.07-.1-2.07-.29-3-.19-.92-.51-1.72-.95-2.4-.44-.68-1.04-1.21-1.78-1.59s-1.66-.57-2.75-.57-2.01.21-2.75.62-1.34.96-1.81 1.64c-.46.68-.79 1.48-1 2.4s-.3 1.87-.3 2.88c0 1.11.09 2.14.28 3.08.18.94.5 1.75.94 2.42.44.68 1.03 1.21 1.76 1.58s1.66.56 2.77.56c1.1 0 2.03-.21 2.78-.62s1.36-.96 1.81-1.66c.46-.7.79-1.51.98-2.42.21-.92.31-1.89.31-2.92zM367.04 92.04c0 .89-.16 1.68-.49 2.37s-.78 1.28-1.36 1.77c-.58.48-1.27.85-2.05 1.09-.79.24-1.63.37-2.54.37-.63 0-1.22-.05-1.76-.16s-1.03-.24-1.45-.4c-.42-.16-.78-.32-1.07-.48-.29-.17-.49-.31-.6-.42s-.2-.27-.25-.45c-.05-.18-.08-.42-.08-.73 0-.21.01-.39.03-.53s.05-.26.09-.34.09-.15.15-.18.13-.05.21-.05c.14 0 .33.08.58.25.25.17.57.35.96.54s.86.38 1.41.55c.55.17 1.19.26 1.91.26.55 0 1.05-.07 1.5-.22.46-.15.84-.35 1.17-.62s.58-.6.75-.99.26-.83.26-1.33c0-.54-.12-1-.37-1.38s-.57-.72-.97-1-.86-.55-1.37-.79c-.51-.24-1.04-.48-1.58-.73s-1.06-.52-1.57-.83-.96-.66-1.36-1.07-.73-.89-.97-1.44c-.25-.55-.37-1.21-.37-1.98 0-.79.14-1.5.43-2.12.29-.62.69-1.14 1.2-1.56.51-.42 1.12-.74 1.83-.96s1.47-.33 2.29-.33c.42 0 .84.04 1.27.11.42.07.82.17 1.2.29.38.12.71.26 1 .41s.49.27.58.37c.09.09.15.17.18.22s.05.12.07.21.03.18.04.3.01.27.01.45-.01.33-.02.47c-.02.14-.04.25-.07.34s-.07.16-.12.21-.11.07-.18.07c-.11 0-.28-.07-.5-.21-.23-.14-.51-.29-.84-.46s-.73-.33-1.18-.47c-.46-.14-.96-.21-1.53-.21-.53 0-.99.07-1.38.21s-.71.33-.97.56-.44.51-.57.83-.19.66-.19 1.03c0 .53.12.98.37 1.36s.57.72.97 1.01.87.56 1.38.81 1.04.49 1.58.74 1.06.52 1.58.82.98.65 1.38 1.05c.4.41.73.88.98 1.44.28.52.4 1.18.4 1.93zM382.32 79.48c0 .19-.01.35-.03.48s-.05.25-.09.33c-.04.08-.1.14-.16.18s-.13.06-.21.06h-5.33v16.44c0 .08-.02.15-.06.21s-.11.1-.21.14-.23.06-.39.09c-.16.02-.36.04-.61.04-.23 0-.43-.01-.6-.04s-.3-.05-.4-.09-.17-.08-.21-.14-.06-.13-.06-.21V80.54h-5.33a.385.385 0 01-.36-.24c-.03-.08-.07-.19-.1-.33s-.04-.3-.04-.48.01-.35.04-.49.06-.26.1-.34.09-.15.15-.19a.37.37 0 01.21-.06h13.18c.08 0 .15.02.21.06s.12.1.16.19c.04.09.08.2.09.34s.05.3.05.48zM387.58 96.97c0 .08-.02.15-.06.21s-.11.1-.21.14-.23.06-.39.09c-.16.02-.36.04-.61.04-.23 0-.43-.01-.6-.04s-.3-.05-.4-.09-.17-.08-.21-.14-.06-.13-.06-.21V78.78c0-.08.02-.15.07-.21.04-.06.12-.1.22-.14.1-.03.23-.06.4-.09a4.518 4.518 0 011.19 0c.16.02.29.05.39.09s.17.08.21.14.06.13.06.21v18.19zM406.94 96.32c0 .2-.03.36-.1.5s-.15.25-.26.34c-.11.09-.23.15-.36.19-.13.04-.26.06-.39.06H405c-.26 0-.49-.03-.69-.08-.2-.05-.38-.15-.56-.29-.18-.14-.35-.33-.53-.58s-.36-.56-.56-.94l-5.78-10.78c-.3-.56-.61-1.14-.91-1.75-.31-.61-.59-1.2-.86-1.78h-.03c.02.7.03 1.42.04 2.15s.01 1.46.01 2.18v11.44c0 .07-.02.13-.06.2s-.11.11-.21.15-.23.06-.39.09c-.16.02-.36.04-.61.04s-.45-.01-.61-.04c-.16-.02-.29-.05-.38-.09s-.16-.08-.2-.15-.06-.13-.06-.2v-17.5c0-.39.11-.67.33-.83.22-.17.46-.25.73-.25h1.24c.29 0 .54.02.73.07s.37.13.53.24.31.27.45.47c.15.2.3.45.46.75l4.45 8.32c.27.51.54 1 .79 1.49s.5.96.74 1.43.47.93.7 1.38.46.91.69 1.37h.01c-.02-.77-.03-1.57-.04-2.41-.01-.83-.01-1.64-.01-2.41V78.83c0-.07.02-.13.06-.19s.11-.11.21-.15c.1-.04.23-.08.39-.1.16-.02.37-.03.63-.03.23 0 .42.01.59.03s.29.05.39.1.16.1.2.15.06.12.06.19v17.49zM426.22 80.98c0 .19-.01.35-.03.49s-.05.26-.09.35-.09.16-.15.2-.12.06-.19.06c-.12 0-.31-.09-.59-.28s-.64-.39-1.1-.62-1.01-.43-1.65-.62-1.4-.28-2.28-.28c-1.04 0-1.98.19-2.81.57s-1.53.91-2.11 1.58-1.02 1.47-1.33 2.4c-.31.93-.46 1.93-.46 3.02 0 1.21.17 2.29.51 3.22.34.94.8 1.73 1.4 2.37s1.31 1.13 2.13 1.46 1.73.5 2.72.5c.59 0 1.18-.07 1.78-.21.6-.14 1.16-.35 1.68-.64v-5.52h-4.39c-.17 0-.29-.08-.37-.25s-.12-.42-.12-.78c0-.19.01-.34.03-.48s.05-.24.09-.32c.04-.08.1-.14.15-.18s.13-.06.22-.06h6.02a.906.906 0 01.61.24c.08.08.16.19.21.32s.07.29.07.47v7.22c0 .25-.04.47-.13.66s-.27.35-.56.49-.65.3-1.1.46-.91.31-1.39.42-.96.21-1.45.26-.97.09-1.45.09c-1.46 0-2.77-.23-3.93-.68s-2.13-1.1-2.92-1.94c-.8-.84-1.4-1.85-1.82-3.02s-.63-2.48-.63-3.93c0-1.5.23-2.87.68-4.09.46-1.22 1.09-2.26 1.92-3.12a8.51 8.51 0 012.97-2c1.16-.47 2.44-.71 3.85-.71.72 0 1.4.06 2.04.19s1.2.28 1.69.45c.49.17.91.36 1.24.56.34.2.57.36.7.49s.21.27.26.44.08.44.08.75z"/></g></svg>