<?xml version="1.0" encoding="UTF-8" standalone="no"?>
<svg
   xmlns:dc="http://purl.org/dc/elements/1.1/"
   xmlns:cc="http://creativecommons.org/ns#"
   xmlns:rdf="http://www.w3.org/1999/02/22-rdf-syntax-ns#"
   xmlns:svg="http://www.w3.org/2000/svg"
   xmlns="http://www.w3.org/2000/svg"
   xmlns:sodipodi="http://sodipodi.sourceforge.net/DTD/sodipodi-0.dtd"
   xmlns:inkscape="http://www.inkscape.org/namespaces/inkscape"
   id="svg2"
   viewBox="0 0 224.56 272.91"
   version="1.0"
   sodipodi:docname="treeIconWhite.svg"
   inkscape:version="0.92.5 (2060ec1f9f, 2020-04-08)">
  <defs
     id="defs125" />
  <sodipodi:namedview
     pagecolor="#ffffff"
     bordercolor="#111111"
     borderopacity="1"
     objecttolerance="10"
     gridtolerance="10"
     guidetolerance="10"
     inkscape:pageopacity="0"
     inkscape:pageshadow="2"
     inkscape:window-width="1920"
     inkscape:window-height="1010"
     id="namedview123"
     showgrid="false"
     inkscape:pagecheckerboard="true"
     inkscape:zoom="4.19222"
     inkscape:cx="45.653649"
     inkscape:cy="177.04424"
     inkscape:window-x="0"
     inkscape:window-y="34"
     inkscape:window-maximized="1"
     inkscape:current-layer="svg2" />
  <g
     id="layer1"
     transform="translate(-4.8524 -50.267)"
     style="fill:#ffffff;fill-opacity:1">
    <path
       id="path2404"
       d="m111.23 50.269c-0.68 0.006-1.44 0.028-2.28 0.062-3.81 0.156-6.74 0.632-6.47 1.063 0.26 0.431-0.24 0.781-1.13 0.781s-1.34 0.45-1 1 0.12 1-0.498 1c-0.615 0-0.84 0.45-0.5 1 0.351 0.567-0.486 1-1.937 1-1.408 0-2.563 0.248-2.563 0.563 0 1.073 2.631 3.226 4.563 3.718 1.675 0.427 1.645 0.493-0.313 0.594-2.596 0.134-2.944 1.612-0.687 2.875 0.947 0.53-0.872 0.711-4.656 0.438-4.441-0.322-5.97-0.124-5.469 0.687 0.684 1.107-1.253 1.61-4.438 1.156-0.825-0.117-1.174 0.101-0.781 0.5 1.268 1.289-1.135 4.449-2.875 3.782-1.109-0.426-1.477-0.181-1.156 0.781 0.259 0.779 1.79 1.404 3.406 1.406 1.605 0.002 3.273 0.551 3.719 1.25s1.234 1.038 1.75 0.719 0.937-0.079 0.937 0.562c0 0.724-0.663 0.895-1.75 0.438-3.844-1.616-5.96-1.633-6.562-0.063-0.463 1.208 0.011 1.594 2.031 1.594 2.553 0 2.582 0.059 0.719 1.469-1.068 0.807-2.725 1.482-3.688 1.5-2.057 0.037-2.394 2.031-0.343 2.031 0.766 0 1.637 0.624 1.937 1.406 0.325 0.846 1.326 1.214 2.5 0.907 1.329-0.348 2.371 0.185 3.125 1.593 1.412 2.639 2.637 2.677 3.313 0.094 0.349-1.337 1.062-1.814 2.125-1.406 1.786 0.685 2.164 2.406 0.531 2.406-0.583 0-0.778 0.45-0.438 1s-0.103 1-1 1c-2.109 0-4.805 2.697-4 4 0.343 0.554 0.194 1-0.343 1-0.538 0-1.805 0.306-2.813 0.688-1.745 0.661-1.761 0.619-0.094-1.063 1.808-1.824 2.372-3.117 0.969-2.25-0.439 0.271-1.424 0.097-2.187-0.375-1.124-0.694-1.144-1.147-0.125-2.375 0.692-0.834 1.896-1.272 2.687-0.969 1.006 0.386 1.245 0.065 0.813-1.062-0.718-1.87-1.992-2.082-2.969-0.5-0.441 0.713-1.536 0.18-3.094-1.5-1.329-1.433-2.918-2.594-3.531-2.594s-0.308 0.9 0.687 2c2.743 3.031 1.65 2.734-7.25-1.875-2.337-1.21-4.25-1.722-4.25-1.156 0 1.417-2.739 1.312-3.218-0.125-0.214-0.64-1.274-1.343-2.344-1.531-4.936-0.87-8.438-0.876-8.438-0.032 0 0.509-0.621 0.677-1.406 0.375-2.137-0.819-7.697 1.571-7.125 3.063 0.496 1.291-0.545 1.641-3.75 1.312-0.975-0.1-1.702 0.208-1.625 0.657s0.04 1.15-0.094 1.562c-0.423 1.305-0.746 2.716-0.875 3.875-0.085 0.766-0.611 0.705-1.687-0.187-0.948-0.787-1.845-0.946-2.25-0.375-0.371 0.521-2.038 1.433-3.688 2-2.133 0.732-2.959 1.653-2.906 3.187 0.041 1.187-0.297 1.905-0.75 1.625s-0.844 0.188-0.844 1.031c0 1.224-0.506 1.352-2.5 0.594-2.143-0.815-2.5-0.662-2.5 1.031 0 1.094-0.673 1.974-1.5 1.974-0.825 0-1.5 0.45-1.5 1s0.563 0.99 1.25 1c0.982 0.01 0.969 0.2-0.031 0.84-1.982 1.26-2.408 5.16-0.562 5.16 1.182 0 1.417 0.61 0.906 2.65-0.558 2.22-0.449 2.5 0.719 1.53 0.772-0.64 1.768-0.84 2.218-0.43 0.45 0.4 0.529 0.21 0.157-0.44-0.373-0.65-0.216-1.47 0.343-1.81 0.559-0.35 1 0.08 1 0.93 0 0.86 0.433 1.57 0.938 1.57s1.696 0.28 2.656 0.65c1.19 0.46 1.524 0.3 1.031-0.5-1.08-1.75 0.499-1.39 1.813 0.41 1.18 1.61 5.013 0.98 4-0.66-0.301-0.48 0.178-0.61 1.031-0.28 0.854 0.33 1.531 0.14 1.531-0.41s0.694-1.27 1.532-1.59c1.242-0.48 1.332-0.21 0.468 1.41-1.47 2.74 0.184 2.46 2.969-0.5 1.276-1.36 2.689-2.27 3.125-2s1.246-0.31 1.813-1.28c0.567-0.98 1.045-1.22 1.062-0.57 0.017 0.66-0.367 1.43-0.844 1.72-1.635 1.01-0.048 5.16 2.032 5.31 1.451 0.11 1.845-0.26 1.406-1.4-0.529-1.38-0.371-1.43 1.094-0.22 1.255 1.04 1.792 1.08 2.093 0.19 0.28-0.83 1.126-0.9 2.75-0.28 1.79 0.68 2.476 0.51 2.938-0.69 0.55-1.44 0.773-1.45 2.344-0.03 1.928 1.74 5.815 0.47 4.593-1.5-0.405-0.66-0.223-0.81 0.469-0.38 0.635 0.39 1.156 0.17 1.156-0.5 0-0.73 0.827-0.49 2.094 0.66 1.15 1.04 2.612 1.93 3.25 1.97 3.083 0.17 7.403 1.94 9.656 3.93 1.375 1.22 3.963 3.22 5.75 4.44 1.788 1.23 3.25 2.62 3.25 3.1 0 1.73-3.99 2.13-5.562 0.56-0.863-0.86-1.989-1.62-2.5-1.69s-1.388-0.24-1.938-0.37c-0.55-0.14-1.457-0.31-2.031-0.38s-0.911-0.91-0.75-1.87c0.204-1.22-0.484-1.87-2.219-2.1-1.375-0.18-2.915-0.75-3.437-1.25-1.211-1.17-2.84-1.19-2.125-0.03 0.538 0.87-2.679 1.36-7.438 1.13-7.357-0.37-12.391 0.23-13.812 1.65-0.733 0.73-2.219 1.35-3.313 1.35-1.093 0-1.715 0.45-1.375 1s-0.11 1-1 1-1.34 0.45-1 1-0.11 1-1 1c-0.97 0-1.335 0.46-0.906 1.15 0.479 0.78 0.077 1-1.219 0.66-2.043-0.54-4.821 1.63-3.937 3.06 0.286 0.46-0.643 1.34-2.031 1.97-1.389 0.63-2.253 1.58-1.938 2.09s0.122 1.19-0.437 1.53c-1.623 1.01-1.179 2.82 0.531 2.16 0.943-0.36 1.302-0.2 0.906 0.44-0.359 0.58 0.105 1.64 1.063 2.34 1.624 1.19 1.642 1.3 0.062 1.91-1 0.38-1.455 0.24-1.094-0.35 0.336-0.54-0.051-0.96-0.875-0.96-0.893 0-1.436 0.8-1.343 2.03 0.124 1.65 0.742 2 3.187 1.78 1.668-0.16 3.282-0.59 3.563-0.97 0.28-0.38 1.743-1 3.25-1.38 3.294-0.82 3.772 1.07 0.531 2.1-1.991 0.63-2.022 0.79-0.5 1.9 0.919 0.68 1.341 1.58 0.937 2-0.404 0.43 0.215 0.46 1.407 0.1 1.191-0.37 2.471-0.21 2.812 0.34 0.701 1.14 5.531-0.66 5.531-2.06 0-0.46 1.688-0.57 3.75-0.22 2.063 0.35 4.313 0.53 5 0.41 0.688-0.13 3.838-0.29 7-0.38 3.163-0.08 6.033-0.53 6.375-1 0.824-1.13 9.101 2.56 13.719 6.13 2.019 1.56 5.788 4.04 8.375 5.53 4.905 2.81 7.809 6.05 7.779 8.65-0.01 0.9-0.32 1.12-0.75 0.54-0.4-0.55-1.65-1.5-2.748-2.1-1.1-0.59-2.425-2.05-2.968-3.25-0.544-1.19-1.444-2.01-2-1.81-0.557 0.2-2.157-0.05-3.532-0.56-4.141-1.55-8.371-1.78-9.281-0.5-0.649 0.91-1.007 0.86-1.437-0.22-1.132-2.86-8.465-9.37-10.844-9.63-1.34-0.14-2.438 0.15-2.438 0.66s-1.199 0.65-2.656 0.28c-1.864-0.47-2.436-0.34-1.937 0.47 0.882 1.43 0.055 1.46-2.5 0.09-1.473-0.79-2.766-0.66-5.094 0.5-1.714 0.86-3.763 1.57-4.563 1.57-0.971 0-1.226 0.58-0.781 1.75 0.515 1.35 0.393 1.47-0.531 0.56-0.922-0.92-1.528-0.88-2.594 0.19-0.76 0.76-1.285 1.74-1.187 2.18 0.097 0.44-0.195 1.61-0.625 2.6-0.431 0.98-0.505 2.05-0.188 2.37 0.903 0.9-2.206 3.55-3.344 2.85-0.559-0.35-1.404 0.41-1.875 1.68-0.47 1.28-1.119 2.2-1.468 2.07-0.35-0.14-1.614-0.25-2.782-0.25-1.693 0-1.884 0.27-0.968 1.37 0.884 1.07 0.818 1.52-0.344 1.97-0.83 0.32-1.267 1.22-0.969 2 0.641 1.67 5.415 1.91 5.438 0.28 0.008-0.64 0.374-0.54 0.875 0.25 0.59 0.93 1.75 1.17 3.562 0.72 1.819-0.46 2.484-0.33 2.031 0.41-0.368 0.59-0.123 1.74 0.532 2.53 1.392 1.67 4.581 0.38 6.781-2.72 1.183-1.67 1.484-1.67 2.875-0.28 1.189 1.19 1.863 1.26 2.937 0.37 0.767-0.63 1.371-0.76 1.375-0.28 0.011 1.16 4.89 3.36 7.469 3.38 1.128 0 2.673 0.43 3.469 0.93 0.879 0.56 2.154 0.54 3.219-0.03 1.319-0.7 2.342-0.34 4.156 1.47 2.74 2.74 4.093 5.63 2.656 5.63-0.533 0-0.969-0.45-0.969-1s-1.125-1-2.5-1-2.5 0.5-2.5 1.12c0 0.63-1.177-0.05-2.625-1.5-1.792-1.79-3.387-2.48-5-2.19-1.302 0.24-2.375-0.04-2.375-0.59 0-1.07-2.484-3.84-3.437-3.84-0.314 0-0.563 0.56-0.563 1.25 0.001 0.85-1.647 1.21-5.25 1.12-4.867-0.12-9.495 1.54-8.125 2.91 0.326 0.32-0.334 0.32-1.468 0.03-1.216-0.32-2.757 0.16-3.75 1.15-1.102 1.11-2.439 1.45-3.813 1-1.155-0.37-3.894-0.84-6.094-1.03s-5.012-0.59-6.25-0.9c-1.334-0.34-2.25-0.11-2.25 0.56 0 0.62-0.661 0.87-1.468 0.56-0.808-0.31-1.729-0.13-2.063 0.41s-1.329 0.87-2.187 0.72c-0.893-0.16-1.674 0.54-1.844 1.62-0.164 1.05-0.901 2.24-1.625 2.69-5.1556 3.18-5.9052 4.47-3.063 5.22 1.206 0.31 0.973 0.49-0.7496 0.59-2.4549 0.15-2.4639 0.17-0.5 1.69 1.9996 1.55 1.9996 1.57 0 1.37-3.2445-0.31-4.5-0.03-4.5 1.04 0 0.55 1.155 1 2.5625 1 1.4513 0 2.288 0.43 1.9375 1-0.34 0.55 0.2883 1 1.3746 1 1.087 0 2.192-0.57 2.469-1.25 0.364-0.91 0.537-0.93 0.594-0.07 0.043 0.66-0.388 1.48-0.938 1.82-1.766 1.09-1.067 2.65 0.907 2.03 1.434-0.46 2.298 0.15 3.437 2.43 0.834 1.67 1.102 3.04 0.594 3.04s-0.938 0.7-0.938 1.56 0.45 1.28 1 0.94 1-0.12 1 0.5c0 0.61 0.45 0.84 1 0.5s1.563-0.27 2.25 0.15c0.688 0.43 3.436 0.83 6.094 0.91 4.03 0.12 4.963-0.17 5.594-1.88 0.664-1.79 0.816-1.67 1.375 1.13 0.654 3.27 2.687 4.45 2.687 1.56 0-1.32 0.293-1.41 1.5-0.41 1.23 1.02 1.647 0.79 2.469-1.37 1.144-3.01 1.888-3.37 1.688-0.84-0.101 1.27 0.453 1.66 2.093 1.43 1.348-0.18 2.517 0.32 2.875 1.25 0.33 0.86 1.044 1.57 1.594 1.57s0.747-0.67 0.438-1.47c-0.31-0.81-0.134-1.76 0.406-2.1 0.539-0.33 0.87-0.01 0.719 0.72-0.175 0.84 0.502 1.22 1.875 1.03 1.188-0.16 2.48 0.24 2.875 0.88 0.926 1.5-1.635 3.09-3.063 1.9-0.693-0.57-1.549-0.24-2.375 0.91-1.313 1.82-6.094 1.82-6.094 0 0-1.53-1.414-0.97-4.25 1.66-1.507 1.39-2.75 2.24-2.75 1.87 0-0.36-0.681-0.08-1.531 0.63-0.85 0.7-1.334 1.85-1.062 2.56 0.304 0.79-0.046 1.08-0.907 0.75-1.039-0.4-1.286 0.14-0.937 2.06 0.269 1.49 0.03 2.6-0.594 2.6-0.662 0-0.82 0.87-0.406 2.25 0.554 1.83 0.414 2.01-0.656 1-1.852-1.77-3.409-1.56-1.907 0.25 1.04 1.25 0.899 1.5-0.875 1.5-2.246 0-2.713 0.95-1.218 2.53 0.496 0.52 1.058 1.84 1.25 2.9 0.302 1.68 1.253 1.95 7.125 2.03 5.113 0.08 6.651-0.22 6.281-1.18-0.562-1.47 1.582-1.29 2.687 0.22 0.449 0.61 0.741 0.48 0.75-0.32 0.009-0.72 0.45-1.02 1-0.68s1 0.07 1-0.57 0.675-0.91 1.5-0.59c1.779 0.68 1.846 0.26 0.438-2.66-1.019-2.11-1.002-2.12 0.5-0.25 0.855 1.07 1.562 2.98 1.562 4.25 0 1.49 0.626 2.36 1.75 2.44 0.963 0.07 2.73 0.22 3.938 0.34 1.208 0.13 2.435-0.35 2.719-1.09 0.283-0.74 1.178-1.08 1.968-0.78 0.791 0.3 1.746 0.02 2.125-0.59 0.508-0.83 1.033-0.8 2.032 0.03 0.747 0.62 3.514 1.22 6.156 1.34 2.641 0.12 6.95 1.21 9.562 2.44 2.613 1.22 6.213 2.51 8 2.84 2.143 0.4 5.372 2.63 9.438 6.6 6.17 6.01 6.16 6.01 7.34 14.12 0.65 4.46 1.01 10.14 0.82 12.59l-0.35 4.47-3.15-2.97c-1.75-1.63-3.48-4.02-3.85-5.31-0.603-2.1-0.48-2.23 1.35-1.25 2.52 1.35 4.19 1.4 2.15 0.06-1.33-0.87-1.33-1.08 0-2.03 1.18-0.83 0.96-0.94-1-0.5-2.45 0.56-2.44 0.54-0.25-0.59 1.76-0.91 2.1-1.7 1.6-3.75-0.35-1.43-1.04-2.76-1.5-2.94-0.47-0.18-0.85-0.98-0.85-1.78s-0.56-1.35-1.25-1.19c-0.687 0.16-2.599-0.65-4.248-1.81-1.648-1.15-3.9-2.18-5-2.28-4.893-0.46-7.597-0.07-9.843 1.41-2.423 1.58-4.646 1.66-5.719 0.21-0.633-0.85-5.461-1.17-8.156-0.53-0.942 0.23-2.517 1.31-3.5 2.38-1.296 1.41-2.815 1.85-5.532 1.62-2.062-0.17-3.75-0.67-3.75-1.09 0-0.99-6.17-1.06-7.5-0.09-0.55 0.39-3.567 0.42-6.718 0.06-6.5-0.75-9.153 0.19-8.282 2.94 0.471 1.48 0.175 1.71-1.5 1.28-1.146-0.3-1.994-0.14-1.906 0.34 0.462 2.52-0.258 4.38-1.687 4.38-1.048 0-1.392 0.54-1 1.56 0.461 1.2 0.124 1.42-1.407 0.94-2.28-0.73-2.338-0.57-1.031 2.87 0.803 2.11 0.68 2.42-0.656 1.91-1.081-0.42-1.441-0.15-1.125 0.81 0.255 0.77 1.393 1.55 2.531 1.72s2.314 1.18 2.594 2.25c0.533 2.03 3.687 2.73 3.687 0.81 0-0.61 0.739-0.81 1.625-0.47 1.225 0.47 1.448 0.18 0.938-1.15-0.538-1.42-0.416-1.51 0.594-0.5 1.631 1.61 3.191 1.61 2.218 0-0.549-0.92-0.313-0.91 0.875 0.06 1.992 1.61 1.884 5.19-0.156 5.19-1.104 0-1.213 0.28-0.375 1.12 1.359 1.36 10.84 1.72 14.125 0.53 2.08-0.75 2.277-0.61 1.688 1.25-0.734 2.31-0.337 2.51 2.25 1.22 0.955-0.48 3.134-1.32 4.875-1.87 2.776-0.9 3.233-0.77 3.687 0.96 0.285 1.09 1.007 1.68 1.594 1.32 0.587-0.37 1.062-0.15 1.062 0.47 0 0.61 0.426 0.84 0.938 0.53 0.512-0.32 1.214-0.1 1.562 0.47 0.403 0.65 1.162 0.46 2.094-0.47 0.806-0.81 2.129-1.19 2.938-0.88 1.744 0.67 1.831-0.02 0.406-2.97-0.958-1.98-0.91-2.02 0.375-0.43 1.79 2.21 2.833 2.26 2 0.09-0.408-1.06-0.258-1.43 0.437-1 0.599 0.37 1.764-0.01 2.594-0.84 2.084-2.09 2.408-1.95 3.156 1.46 0.524 2.39 1.105 2.92 2.844 2.6 1.196-0.23 2.873-0.46 3.75-0.5 2.263-0.11 1.823-4.68-0.625-6.47-3.635-2.66-0.471-2.97 6.313-0.63 3.705 1.28 8.266 3.44 10.126 4.82l3.37 2.53-0.59 13.09c-0.32 7.2-0.88 14.11-1.25 15.35-0.67 2.24-0.65 2.25 11.75 2.25h12.41l-0.04-14.75c-0.03-10.57 0.46-17.31 1.79-23.75 2.14-10.47 5.92-18.01 8.5-16.97 0.91 0.36 2.21 0.87 2.9 1.15 0.73 0.3 1.27-0.25 1.28-1.34 0.02-1.43 0.21-1.55 0.88-0.5 0.73 1.15 0.93 1.15 1.4 0 0.44-1.05 0.96-0.89 2.25 0.66 1.18 1.4 1.83 1.63 2.16 0.75 0.26-0.7 0.88-1.02 1.41-0.69 0.52 0.32 1.57 0.08 2.31-0.53 1.01-0.84 1.71-0.78 2.72 0.18 1.97 1.89 6.84 3.89 6.84 2.82 0-0.51-0.42-1.2-0.97-1.53-0.62-0.39-0.53-1.1 0.25-1.94 0.77-0.83 1.47-0.98 1.85-0.38 0.34 0.55 1.75 1.08 3.12 1.16 1.78 0.11 2.34 0.59 1.94 1.66-0.47 1.25-0.31 1.27 1.03 0.18 1.08-0.87 1.82-0.95 2.25-0.25 0.36 0.58 1.11 1.07 1.66 1.07s0.69-0.52 0.31-1.13c-0.46-0.74 0.01-0.86 1.44-0.41 1.27 0.41 2.12 0.24 2.12-0.4 0-0.72 0.66-0.67 1.97 0.15 1.58 0.99 2.23 0.97 3.25-0.06 1.04-1.05 0.96-1.56-0.53-2.65-1.73-1.28-1.71-1.38 0.5-1.69 1.28-0.18 2.36-0.99 2.44-1.81 0.29-3.22 0.44-3.46 1.25-2.19 0.45 0.72 2.93 1.45 5.5 1.62 3.87 0.27 4.63 0.04 4.4-1.31-0.18-1.1 0.32-1.53 1.57-1.31 1.11 0.19 1.61-0.11 1.21-0.75-0.39-0.63 0.21-1.06 1.5-1.06 1.78 0 1.96-0.29 1-1.44-0.97-1.18-0.78-1.31 1.13-0.81 2.07 0.53 2.18 0.41 0.94-1.1-0.76-0.93-2.11-1.58-3-1.44-0.89 0.15-1.52-0.3-1.38-1 0.14-0.69-0.87-1.77-2.25-2.4s-2.5-1.5-2.5-1.94-0.66-0.57-1.5-0.25c-0.83 0.32-3.65-0.32-6.25-1.44-5.28-2.26-10.57-2.92-14.03-1.78-1.43 0.47-2.89 0.29-3.84-0.5-1.14-0.94-1.69-0.98-2.22-0.12-1.01 1.63-7.33 2-7.88 0.47-0.24-0.69 0.4-1.55 1.41-1.91s3.39-1.33 5.31-2.16c1.93-0.83 3.95-1.38 4.5-1.22 0.55 0.17 2.8 0.46 5 0.63s4 0.36 4 0.44c0 0.19 3.64 0.96 6.25 1.34 2.53 0.37 2.85-0.36 1-2.31-1.03-1.09-0.86-1.11 0.94-0.19 3.28 1.69 5.66 1.35 7.72-1.06 1.73-2.02 1.76-2.23 0.19-3.38-1.27-0.93-1.39-1.36-0.41-1.72 0.8-0.28 0.25-0.95-1.44-1.75-2.82-1.32-3.5-2.57-1.75-3.15 0.55-0.19-0.14-1.64-1.53-3.25-2.3-2.68-3.11-2.95-9-3-3.56-0.04-6.47 0.26-6.47 0.65 0 0.4-1.35 0.46-3 0.13-2.16-0.43-3.01-0.21-3.03 0.78-0.02 0.95-0.46 0.78-1.44-0.5-0.77-1.02-2.83-1.96-4.59-2.09-1.76-0.14-3.62-1.01-4.13-1.91-1.15-2.06-2.94-2.17-2.15-0.12 0.49 1.28 0.11 1.25-2.41-0.19l-3-1.72 5.13-1.78c2.82-0.98 12.1-5.38 20.62-9.78 8.53-4.41 16.53-8.03 17.75-8.03 1.23-0.01 3.99-0.73 6.16-1.6 3.09-1.23 4.41-1.3 6.09-0.4 1.58 0.84 2.48 0.82 3.47 0 0.93-0.78 1.55-0.79 2-0.07 0.92 1.49 5.16 1.32 6.75-0.28 0.74-0.74 2.12-1.24 3.09-1.09 1.34 0.19 1.62-0.22 1.16-1.66-0.46-1.45-0.23-1.74 0.97-1.28 1.15 0.44 1.42 0.14 0.97-1.03-0.41-1.08-0.06-1.59 1.03-1.59 1.48 0 1.48-0.24 0.09-2.35-0.84-1.28-1.24-2.63-0.87-3s0.19-0.65-0.44-0.65c-0.62 0-0.88-0.68-0.56-1.5 0.4-1.05-0.09-1.5-1.6-1.5-1.18 0-3.29-1.14-4.68-2.54-1.78-1.78-3.17-2.36-4.6-1.9-1.27 0.4-1.8 0.27-1.4-0.38 0.75-1.22-1.97-4.18-3.85-4.18-0.72 0-1.59-1.13-1.93-2.5-0.4-1.59-1.35-2.5-2.57-2.5-1.05 0-2.14-0.4-2.43-0.88-0.3-0.48-1.74-0.87-3.19-0.87s-2.96-0.55-3.38-1.22c-0.59-0.96-1.25-0.99-2.97-0.07-1.82 0.98-2.57 0.86-4.28-0.65-1.49-1.33-2.18-1.47-2.5-0.56-0.24 0.68-0.94 1.25-1.56 1.25-0.82 0-0.82-0.31 0-1.13 0.62-0.62 0.94-1.66 0.69-2.31-0.54-1.41 10.85-12.59 12.78-12.53 0.73 0.02 0.19 0.67-1.19 1.43l-2.5 1.38 2.63 1c1.55 0.59 4.09 0.67 6.25 0.19 2.06-0.47 3.87-0.45 4.18 0.06 0.31 0.49 0.02 0.91-0.65 0.91-0.68 0-0.98 0.26-0.66 0.59 0.33 0.32 1.55 0.28 2.72-0.09 1.81-0.58 1.95-0.9 0.84-2.25-1.11-1.37-0.93-1.38 1.29 0.06 2.52 1.64 2.6 1.63 3.78-0.94 1.01-2.22 0.91-2.97-0.6-4.69-1.67-1.91-1.67-2-0.03-1.4 0.96 0.35 1.75 0.22 1.75-0.28 0-1.49-3.1-2.79-5.28-2.22-1.68 0.44-1.92 0.16-1.44-1.69 0.4-1.53 0.06-2.42-1.09-2.84-0.92-0.34-2.03-1.21-2.47-1.94s-1.45-1.31-2.22-1.31c-0.76 0-1.97-0.82-2.69-1.82-2.04-2.83-3.74-3.46-5.59-2.09-0.94 0.69 0.1-0.53 2.31-2.69s4.69-5 5.53-6.31c1.33-2.06 1.85-2.22 3.72-1.22 1.67 0.89 2.64 0.87 4.13-0.06 1.54-0.96 2.28-0.92 3.53 0.12 0.87 0.72 1.56 1.93 1.56 2.69 0 1.72 2.19 1.79 3.88 0.13 1.02-1.01 1.19-0.98 0.93 0.12-0.17 0.76 0.25 1.56 0.94 1.81 0.81 0.3 1.05-0.1 0.66-1.12-0.34-0.88-0.13-2.19 0.47-2.91 0.71-0.85 0.78-2.39 0.22-4.37-0.71-2.47-0.59-3.01 0.65-2.91 2.67 0.21 2.51-2.26-0.19-2.94-1.49-0.37-2.56-1.36-2.56-2.34 0-0.93-0.53-2.25-1.19-2.91-0.93-0.93-0.71-1.18 1-1.18 1.21 0 2.19-0.45 2.19-1 0-0.555-0.67-1.005-1.5-1.005-0.82 0-1.5-0.675-1.5-1.5s-0.37-1.5-0.84-1.5c-0.48 0-3.15-2.104-5.94-4.687-4.34-4.02-5.72-4.75-9.62-4.938-2.51-0.121-4.84 0.206-5.16 0.719-0.97 1.571-2.26 0.013-1.72-2.063 0.48-1.822 0.67-1.839 2.91-0.375 2.42 1.589 3.21 0.735 1.37-1.468-0.72-0.873-0.65-0.915 0.22-0.188 1.55 1.294 3.08 1.294 2.28 0-0.34-0.55-0.11-1 0.5-1 0.62 0 0.84-0.456 0.5-1-0.35-0.567 0.08-0.716 0.97-0.375 2.19 0.839 1.99-2.275-0.22-3.562-1.08-0.629-1.24-1.013-0.44-1.032 0.72-0.016 1.03-0.479 0.69-1.031-0.41-0.667-1.27-0.659-2.56 0.031-1.39 0.746-1.94 0.727-1.94-0.093 0-0.628-0.68-0.888-1.53-0.563-0.9 0.347-1.47 0.068-1.37-0.656 0.42-3.281-0.11-3.921-2.66-3.281-1.68 0.42-2.39 0.268-1.97-0.407 0.36-0.587-0.21-1.031-1.34-1.031-1.1 0-2.28-0.472-2.63-1.031-0.34-0.559-1.02-0.762-1.5-0.469-0.47 0.293-1.15 0.068-1.5-0.5s-1.05-0.785-1.56-0.469c-0.51 0.317-0.94 0.21-0.94-0.25 0-0.459-1.98-0.827-4.4-0.812-2.43 0.015-4.34 0.481-4.25 1.031s-0.64 0.849-1.6 0.688c-0.96-0.162-1.75 0.176-1.75 0.75s-0.67 1.062-1.5 1.062c-2.2 0-1.83 1.672 0.5 2.281 1.1 0.288 1.98 1.136 1.94 1.875-0.06 1.011-0.21 1.034-0.59 0.094-0.28-0.687-1.55-1.25-2.82-1.25-2.58 0-7.78 2.404-6.97 3.219 0.29 0.29-0.58 0.531-1.93 0.531-1.53 0-2.29-0.46-2-1.219 0.3-0.794-0.65-1.253-2.72-1.312-1.75-0.05-3.67-0.602-4.28-1.219-0.82-0.828-0.63-0.944 0.78-0.406 1.33 0.509 1.72 0.379 1.22-0.438-0.4-0.643-1.51-1.179-2.44-1.187-1.44-0.013-1.47-0.145-0.22-0.938 1.21-0.762 1.02-1.13-1-1.937-1.36-0.543-1.86-0.996-1.12-1.031 2.26-0.108 0.67-2.413-1.79-2.594-1.27-0.094-2.73-0.96-3.28-1.938-0.81-1.447-1.18-1.521-1.9-0.406-0.69 1.059-1.03 0.865-1.5-0.875-0.34-1.237-1.05-2.25-1.6-2.25-0.54 0-0.7 0.698-0.37 1.563 0.43 1.124 0.09 1.46-1.16 1.187-0.96-0.21-1.63-0.965-1.47-1.687 0.2-0.896-0.28-1.084-1.5-0.594-0.98 0.395-2.36 0.953-3.09 1.25-0.76 0.309-1.24-0.051-1.13-0.844 0.42-2.997-0.11-4.69-1.65-5.281-1.19-0.456-1.46-0.201-1 1 0.65 1.685-0.93 1.668-7.41-0.094-1.93-0.526-2.16-0.423-1 0.406 1.25 0.892 1.13 1.05-0.72 1.063-1.66 0.011-2.04-0.383-1.56-1.625 0.51-1.339 0.18-1.55-1.69-1.063-1.73 0.454-2.01 0.328-1.15-0.531 2-2.007 1.26-2.7-3.5-2.656zm-16.94 8.906c-0.858 0-1.278 0.45-0.938 1s1.045 1 1.563 1c0.517 0 0.937-0.45 0.937-1s-0.705-1-1.562-1zm45.56 4c0.55 0 1 0.45 1 1s-0.45 1-1 1-1-0.45-1-1 0.45-1 1-1zm4.81 1.469c0.1-0.04 0.26-0.02 0.47 0.062 0.7 0.27 1.82 1.38 2.5 2.469 1.81 2.894-0.24 2.449-2.15-0.469-0.82-1.252-1.1-1.943-0.82-2.062zm-52.87 1.094c0.298-0.03 0.821 0.045 1.562 0.187 1.38 0.264 2.5 0.598 2.5 0.75 0 1.069-3.063 1.116-3.937 0.063-0.533-0.642-0.621-0.951-0.125-1zm51.37 0.437c0.37 0.056 0.81 0.367 1.16 0.938 0.32 0.512 0.16 1.159-0.34 1.468-0.5 0.31-1.16-0.084-1.47-0.906-0.39-1.012 0.04-1.593 0.65-1.5zm-58.214 2.125c0.348-0.014 0.733 0.043 1.094 0.188 0.798 0.319 0.571 0.545-0.594 0.593-1.054 0.044-1.645-0.199-1.312-0.531 0.166-0.166 0.465-0.235 0.812-0.25zm-7.094 5.875c-0.55 0-1 0.45-1 1s0.45 1 1 1 1-0.45 1-1-0.45-1-1-1zm75.848 1c0.45 0 0.84 0.675 0.84 1.5 0 1.7-0.07 1.74-1 0.813-0.93-0.932-0.84-2.313 0.16-2.313zm-12.32 5.063c0.6-0.123 1.73 0.428 3.44 1.625 1.9 1.327 2.28 1.364 1.84 0.218-0.42-1.115 0.39-1.464 3.57-1.531 2.27-0.048 3.56 0.102 2.87 0.344s-1.25 0.978-1.25 1.625-0.79 1.666-1.78 2.281c-1.41 0.882-2.3 0.731-4.12-0.75-1.28-1.033-2.93-1.875-3.69-1.875-0.77 0-1.41-0.45-1.41-1 0-0.541 0.17-0.864 0.53-0.937zm-59.059 0.968c0.276 0 0.635 0.328 1.031 0.969 0.34 0.55 0.145 1-0.437 1-0.583 0-1.063-0.45-1.063-1 0-0.64 0.193-0.969 0.469-0.969zm-41.531 0.969c-0.583 0-0.778 0.45-0.438 1 0.792 1.282 1.5 1.282 1.5 0 0-0.55-0.48-1-1.062-1zm57.125 2.031c0.525 0 0.937 0.322 0.937 0.969 0 0.55-0.705 1-1.562 1-0.858 0-1.278-0.45-0.938-1 0.4-0.647 1.038-0.969 1.563-0.969zm52.215 1c0.19 0.008 0.52 0.412 1.13 1.219 0.73 0.963 2.26 1.75 3.4 1.75 1.15 0 2.35 0.45 2.69 1s1.08 1 1.63 1 0.71-0.45 0.37-1c-0.77-1.248-0.29-1.258 2.94-0.031 1.7 0.648 2.56 0.64 2.56-0.031s0.65-0.658 1.94 0.031c1.31 0.703 2.14 0.69 2.56 0 0.35-0.561 1.05-0.754 1.56-0.438 0.52 0.317 0.94 0.128 0.94-0.437s0.68-0.785 1.5-0.469c0.83 0.317 1.5 1.008 1.5 1.531 0 0.524-0.4 0.716-0.9 0.407-1.74-1.071-4.25 0.646-3.75 2.562 0.48 1.862-0.4 2.483-1.69 1.188-1.98-1.976-11.51 0.48-10.19 2.625 0.29 0.475-0.4 0.64-1.53 0.343-1.51-0.396-2.18 0.027-2.59 1.594-0.31 1.173-0.99 2.13-1.5 2.13-0.52 0-0.65 0.47-0.29 1.06 0.37 0.59 1.38 0.78 2.29 0.44 1.05-0.41 1.29-0.3 0.65 0.31-2.06 1.95-5.47 2.37-6.09 0.75-0.33-0.87-1.43-1.56-2.44-1.56s-2.13-0.45-2.47-1c-0.34-0.555-1.61-1.066-2.81-1.13-1.69-0.089-1.79-0.209-0.44-0.562 0.96-0.252 1.75-0.896 1.75-1.438s0.43-0.754 0.94-0.437c0.51 0.316 1.2 0.16 1.53-0.375s1.35-0.691 2.25-0.344c1.25 0.479 1.47 0.219 0.97-1.094-0.36-0.95-0.25-1.467 0.25-1.156 1.33 0.82 6.17-1.634 5.75-2.906-0.2-0.593-0.75-1.086-1.25-1.094-1.78-0.03-3.44-1.61-3.41-3.281 0.02-0.78 0.07-1.165 0.25-1.157zm31.72 0.969c0.55 0 1 0.698 1 1.563 0 2.485-2.48 4.522-3.84 3.156-1.58-1.574-1.44-2.719 0.34-2.719 0.83 0 1.5-0.45 1.5-1s0.45-1 1-1zm9.22 0.031c0.14 0.011 0.35 0.303 0.69 0.844 0.51 0.803 1.42 1.05 2.15 0.594 0.85-0.525 1.01-0.383 0.5 0.437-0.41 0.673-1.38 0.983-2.15 0.688s-1.41-0.191-1.41 0.25-0.63 0.812-1.4 0.812c-0.78 0-1.16-0.582-0.88-1.312s0.91-1.086 1.41-0.781c0.49 0.304 0.9-0.03 0.9-0.75 0.01-0.514 0.06-0.792 0.19-0.782zm-4.75 0.969c0.9 0 1.26 0.586 0.91 1.5-0.75 1.941-2.38 1.941-2.38 0 0-0.825 0.66-1.5 1.47-1.5zm-53.19 7.125c0.16-0.032 0.62 0.384 1.5 1.188 1.03 0.933 2.14 1.456 2.44 1.156s0.81 0.106 1.13 0.937c0.32 0.832 0.22 1.757-0.22 2.032-1.11 0.687-3.71-1.518-4.53-3.875-0.33-0.921-0.47-1.405-0.32-1.438zm-110.34 0.875c-0.583 0-0.778 0.45-0.438 1 0.792 1.282 1.5 1.282 1.5 0 0-0.55-0.48-1-1.062-1zm105.81 1.344c0.17 0.002 0.37 0.01 0.56 0.031 2.72 0.289 4.69 1.381 4.69 2.594 0 0.478-1.58 0.817-3.5 0.719-2.53-0.13-3.49-0.655-3.5-1.875 0-1.014 0.56-1.48 1.75-1.469zm-6.09 2.094c0.33-0.013 0.59 0.134 0.81 0.5 0.36 0.58-0.16 1.337-1.16 1.657-3.67 1.19-3.96 1.18-3.96-0.16 0-0.746 0.39-1.108 0.87-0.81 0.48 0.3 1.5 0.03 2.25-0.594 0.47-0.392 0.86-0.58 1.19-0.593zm-22.03 0.718c0.28-0.075 0.3 0.149 0.03 0.594-0.833 1.345 0.23 4.255 1.56 4.255 0.55 0 0.71-0.77 0.34-1.72-0.48-1.26 0.09-1.06 2.13 0.75 4.65 4.11 5.8 6.97 2.81 6.97-0.82 0-1.5 0.63-1.5 1.4 0 0.92-0.7 1.22-2 0.88-1.35-0.36-2-0.03-2 1s-0.63 1.35-1.998 1c-1.549-0.41-1.884-0.16-1.406 1.09 0.342 0.89 1.604 1.66 2.784 1.72 2.07 0.1 2.07 0.12 0.12 0.75-1.11 0.36-1.95 1.22-1.873 1.91 0.078 0.68 0.182 1.7 0.25 2.25 0.069 0.55 0.603 1 1.183 1 0.59 0 0.78-0.45 0.44-1-0.94-1.52 1.87-1.2 4.06 0.46 2.57 1.94 4.02 1.92 2.41-0.03-1.04-1.25-1.03-1.76 0.03-2.75 0.84-0.77 1.07-0.79 0.66-0.06-0.35 0.63 0.05 1.7 0.87 2.38 1.19 0.98 1.78 0.98 2.97 0 1.31-1.09 1.5-0.51 1.5 4.37 0 3.09-0.1 5.63-0.25 5.63-0.14 0-1.48-1.13-2.97-2.5-1.48-1.38-3.37-2.5-4.22-2.5-0.84 0-1.56-0.45-1.56-1s-0.7-1-1.56-1-1.28 0.45-0.94 1-0.08 1-0.94 1c-0.85 0-1.558-0.45-1.558-1s-0.831-1-1.843-1c-1.175 0-2.796-1.78-4.5-4.91-2.215-4.07-2.508-5.39-1.657-7.63 0.855-2.24 1.45-2.59 3.563-2.06 2.061 0.52 2.495 0.32 2.25-1.12-0.185-1.1 0.242-1.69 1.094-1.5 1.071 0.22 1.261-0.63 0.843-3.75-0.316-2.37-0.118-4.309 0.498-4.691 0.15-0.091 0.28-0.163 0.38-0.188zm13.56 1.939c0.17-0.01 0.3 0.02 0.37 0.09 0.21 0.21-0.21 2.3-0.9 4.66l-1.25 4.28-1.22-2.59c-0.66-1.44-1.19-3.06-1.19-3.57 0-0.86 3.03-2.81 4.19-2.87zm58.19 4.28c0.36 0.01 0.62 0.42 0.62 1.06 0 1.76-0.58 2.01-1.44 0.63-0.31-0.51-0.12-1.22 0.44-1.56 0.14-0.09 0.26-0.13 0.38-0.13zm13.18 0c0.34-0.1 0.61 0.07 0.88 0.5 0.41 0.66 0.2 1.86-0.47 2.66-2.53 3.04-4 1.24-1.62-2 0.48-0.67 0.88-1.06 1.21-1.16zm-18.96 1.63c0.56-0.06 1.34 0.7 1.68 2 0.65 2.48-1.48 2.67-3.4 0.31-0.94-1.15-0.98-1.45-0.13-0.94 0.69 0.41 1.25 0.27 1.25-0.31 0-0.7 0.26-1.03 0.6-1.06zm9.93 0.43c0.31 0 0.92 0.11 1.85 0.28 2.63 0.51 2.76 0.78 2.15 4.16-0.35 1.99-1.08 5.31-1.62 7.38-0.54 2.06-1.13 3.75-1.31 3.75-0.35 0-1.6-8.36-1.6-10.66 0-0.75 0.68-1.34 1.5-1.34 1.99 0 1.91-1.01-0.22-2.57-0.94-0.69-1.25-0.99-0.75-1zm-92.153 0.13c0.523-0.07 1.098 0.59 1.657 2.03 0.618 1.6 1.956 4.59 2.968 6.66 2.204 4.48 1.635 4.62-3 0.78-2.753-2.29-3.42-3.5-3.156-5.72 0.285-2.4 0.86-3.67 1.531-3.75zm5.219 0.78c0.14 0.03 0.33 0.14 0.531 0.34 0.791 0.79 0.77 1.65 0 2.97-0.94 1.62-1.067 1.46-1.093-1.12-0.017-1.62 0.142-2.29 0.562-2.19zm82.314 0.59c0.21-0.02 0.46 0.06 0.72 0.32 0.33 0.33 0.39 1.18 0.15 1.87-0.34 1.02-0.55 1.02-1.18 0-0.63-1.01-0.32-2.12 0.31-2.19zm-93.626 0.07c0.833 0 1.777 0.67 2.093 1.5 0.744 1.93-0.767 1.93-2.375 0-1.013-1.23-0.952-1.5 0.282-1.5zm-4.594 1c0.655-0.01 1.472 0.45 1.812 1 0.768 1.24 0.421 1.24-1.5 0-0.901-0.59-1.028-1-0.312-1zm-18.219 0.03c0.276 0 0.635 0.32 1.031 0.97 0.34 0.55 0.145 1-0.437 1-0.583 0-1.063-0.45-1.063-1 0-0.65 0.193-0.97 0.469-0.97zm130.72 1.31c0.35-0.04 0.51 0.31 0.66 1.03 0.38 1.91 2.15 2.2 2.15 0.34 0-0.7 0.85-1.28 1.88-1.28 1.62 0 1.74 0.41 0.93 3.32-0.98 3.55-4.61 10.25-5.56 10.25-0.31 0-1.49-0.79-2.59-1.75-1.9-1.67-1.95-1.67-1.35 0 0.36 0.96 0.16 1.75-0.43 1.75-1.99 0 0.07-10.32 2.47-12.38 0.96-0.83 1.49-1.25 1.84-1.28zm13.72 0.94c1.14-0.1 1.03 0.63 0.56 3.43-0.41 2.47-1.71 4.74-3.75 6.54-5.28 4.64-6.64 3.14-3.56-3.91 2.51-5.76 1.77-4.94 5.15-5.75 0.7-0.17 1.22-0.28 1.6-0.31zm-31.47 0.03c0.2 0 0.59 0.12 1.19 0.34 2.6 0.98 4.3 3.4 4.34 6.13 0.02 1.25 0.69 3.81 1.47 5.68 1.3 3.11 1.28 3.36-0.25 2.82-0.92-0.33-2.14-0.97-2.72-1.41-1.21-0.92-5.47-0.02-5.47 1.16 0 0.43-0.97 0.52-2.15 0.22-1.32-0.35-2.58 0.01-3.25 0.93-0.81 1.1-1.75 1.29-3.44 0.66-1.28-0.48-2.75-0.59-3.25-0.28s-1.9-0.15-3.13-1c-2.49-1.75-5.78-2.09-5.78-0.6 0 0.63-0.88 0.65-2.5 0.04-1.38-0.53-3.9-0.79-5.59-0.6-1.89 0.22-2.7-0.02-2.13-0.59 1.18-1.18 4.11-1.38 6.88-0.47 1.33 0.44 2.65 0.19 3.5-0.66 0.75-0.75 1.91-1.16 2.59-0.93 0.68 0.22 1.25-0.08 1.25-0.66s0.68-0.79 1.5-0.47c0.83 0.32 1.5 0.05 1.5-0.59s0.44-0.9 0.97-0.57 1.28-0.54 1.63-1.93c0.35-1.4 1.07-2.53 1.59-2.53s0.62 0.49 0.25 1.09c-0.42 0.68 0.02 0.96 1.19 0.72 1.02-0.21 2.37 0.25 2.97 1.03 0.91 1.19 1.45 1.19 3.5 0.06 1.33-0.74 2.86-1.35 3.4-1.37 1.52-0.06 1.81-3.45 0.44-5.1-0.64-0.77-0.83-1.12-0.5-1.12zm45.19 5.06c-0.36 0.02-0.63 0.42-0.63 1.06 0 0.86 0.45 1.57 1 1.57 1.3 0 1.3-1.71 0-2.5-0.14-0.09-0.25-0.14-0.37-0.13zm-46.16 1.66c-0.27 0-0.47 0.32-0.47 0.97 0 0.55 0.48 1 1.06 1 0.59 0 0.78-0.45 0.44-1-0.39-0.65-0.75-0.97-1.03-0.97zm-35.59 2.97c1.44 0 1.74 0.55 1.37 2.5-0.69 3.63-3.25 3.08-3.25-0.69 0-1.12 0.74-1.81 1.88-1.81zm-4.16 1.28c0.18 0.03 0.29 0.18 0.28 0.4-0.01 0.45-0.46 1.49-1 2.32-0.83 1.29-0.95 1.26-0.97-0.19 0-0.93 0.42-1.97 0.97-2.31 0.28-0.17 0.54-0.26 0.72-0.22zm-7.41 0.75c0.4 0.03 0.84 0.34 1.22 0.97 0.35 0.55 1.02 0.75 1.53 0.43 0.52-0.31 0.94 0.34 0.94 1.41s-0.69 2.2-1.56 2.53c-1.9 0.73-1.68 0.75-3.16-0.19-0.68-0.43-0.95-1.72-0.62-2.97 0.38-1.47 0.99-2.23 1.65-2.18zm-10.28 6.97c0.09-0.04 0.55 0.29 1.47 0.96 1.1 0.81 2.21 1.6 2.44 1.75 0.23 0.16-0.08 0.29-0.66 0.29-0.57 0-1.65-0.79-2.4-1.75-0.64-0.81-0.93-1.22-0.85-1.25zm-74.496 4c0.807 0 1.468 0.67 1.468 1.5 0 1.94-1.598 1.94-2.343 0-0.351-0.92-0.02-1.5 0.875-1.5zm66.216 0c0.55 0 1.51 0.57 2.1 1.28 0.79 0.96 0.57 1.59-0.88 2.5-1.17 0.73-1.97 0.82-1.97 0.22 0-0.56 0.51-1 1.13-1 0.77 0 0.73-0.47-0.13-1.5-0.69-0.84-0.81-1.5-0.25-1.5zm-19.591 4.09c0.13-0.1 0.533 0.25 1.312 1 1.073 1.03 1.582 2.79 1.375 4.84l-0.344 3.22-3-3.19c-2.831-3.01-2.872-3.17-0.656-2.5 2.109 0.65 2.29 0.49 1.656-1.62-0.327-1.09-0.474-1.65-0.343-1.75zm11.781 0.28c0.199-0.02 0.489 0.01 0.844 0.06 0.955 0.14 1.884 1 2.062 1.91 0.444 2.27-1.526 2.09-2.781-0.25-0.626-1.17-0.721-1.65-0.125-1.72zm-24.656 0.72c0.084-0.09 0.35 0.13 0.843 0.62 0.684 0.68 0.996 1.51 0.688 1.82-0.308 0.3-0.875-0.27-1.25-1.25-0.271-0.72-0.366-1.11-0.281-1.19zm17.875 0.28c0.306-0.1 0.706 0.08 1.25 0.53 0.6 0.5 1.543 0.93 2.093 0.94s1.621 0.96 2.375 2.09c1.204 1.82 1.163 2.07-0.312 2.07-0.925 0-1.435 0.36-1.156 0.81 0.278 0.45 0.701 2.02 0.968 3.5 0.564 3.1-0.069 3.3-2.968 0.87-1.241-1.03-2.294-3.43-2.625-5.9-0.412-3.08-0.299-4.68 0.375-4.91zm-12.532 1.66c0.621-0.02 1.691 0.64 2.375 1.47 1.581 1.9 0.932 1.91-1.562 0.03-1.068-0.81-1.433-1.49-0.813-1.5zm-9.281 0.15c0.206 0.03 0.485 0.24 0.844 0.6 0.651 0.65 0.94 1.4 0.656 1.68-0.667 0.67-1.844-0.51-1.844-1.84 0-0.31 0.138-0.46 0.344-0.44zm-12.062 0.88c0.255 0.01 0.808 0.17 1.718 0.44 1.375 0.39 2.947 1.1 3.469 1.59 1.687 1.58-1.862 0.9-3.969-0.75-1.214-0.96-1.645-1.31-1.218-1.28zm137.82 2.94c0.59 0-0.32 1.77-2.04 3.93-1.97 2.5-3.86 3.88-5.15 3.78-2.33-0.17-2.56-0.46-2.47-3.21 0.04-1.3 0.88-2.11 2.34-2.32 1.25-0.17 2.01-0.74 1.69-1.25-0.75-1.21 0.2-1.19 2.59 0.1 1.34 0.71 1.94 0.71 1.94 0 0-0.57 0.5-1.03 1.1-1.03zm-17.1 2c0.55 0 1 0.45 1 1s-0.45 1-1 1-1-0.45-1-1 0.45-1 1-1zm29.44 3c-0.86 0-1.25 0.44-0.91 1 0.35 0.55 1.02 0.75 1.53 0.43 1.39-0.85 1.14-1.43-0.62-1.43zm-101 1.25c0.25 0.01 0.56 0.36 1.09 1.09 0.86 1.18 2.06 1.49 4.22 1.06 1.75-0.35 3.3-0.16 3.69 0.47 0.42 0.68 0.1 0.86-0.84 0.5-3.1-1.19-5.62 4.61-3.13 7.19 1.82 1.87 4.75 2.51 6.16 1.34 1.14-0.95 1.26-0.33 0.78 3.72-0.32 2.68-0.76 5.44-0.97 6.13-0.57 1.85-2.23 1.51-3.41-0.69-0.77-1.44-0.64-2.29 0.44-3.38 1.27-1.27 1.22-1.65-0.34-3.06-1.98-1.79-3.59-2.18-2.63-0.62 0.34 0.55 0.36 1 0.03 1-1.2 0-6.35-12.26-5.78-13.75 0.26-0.68 0.44-1.02 0.69-1zm-5.5 1.75c0.582 0 1.062 0.45 1.062 1 0 1.28-0.708 1.28-1.5 0-0.34-0.55-0.145-1 0.438-1zm26.59 8.21c0.21 0 0.45 0.01 0.72 0.04 3.24 0.34 3.82 1.74 1.69 4.03-1.4 1.5-1.59 2.44-0.84 3.84 1.14 2.15 2.53 2.42 3.28 0.63 0.61-1.48 3.86 2.05 3.34 3.62-0.45 1.36-4.95 1.58-6.53 0.31-0.96-0.77-1.59-0.67-2.25 0.38-0.59 0.94-0.9-1.08-0.91-5.81-0.01-6.05 0.04-7.03 1.5-7.04zm40.35 0.79c0.61 0 1.12 0.43 1.12 1 0 0.56 1.15 0.81 2.56 0.56 1.53-0.28 2.43-0.03 2.22 0.59-0.53 1.6-7.26 3.62-11.25 3.38-1.94-0.12-3.53 0.13-3.53 0.59s-1.1 0.77-2.44 0.66c-2.47-0.21-2.56-1.78-0.09-1.78 0.75 0 1.58-0.57 1.81-1.25 0.34-0.98 1.1-1.01 3.57-0.1 2.67 0.99 3.15 0.93 3.15-0.37 0-1.27 0.28-1.32 1.53-0.28 1.98 1.64 3.15 0.51 1.5-1.47-0.86-1.05-0.92-1.53-0.15-1.53zm11.93 3c0.27-0.08 0.52-0.02 0.72 0.18 0.21 0.21-0.01 0.96-0.47 1.69-0.53 0.86-1.02 0.95-1.43 0.28-0.46-0.74 0.39-1.94 1.18-2.15zm-32.56 1.25c0.15-0.12 0.39 0.2 0.81 0.93 0.62 1.06 1.65 1.48 2.72 1.1 1.29-0.47 1.11 0.13-0.75 2.31-4.26 4.99-4.34 5.02-3.68 2.41 0.34-1.38 0.66-3.63 0.68-5 0.02-1.08 0.07-1.64 0.22-1.75zm-104.25 1.84c0.331 0 0.677 0.18 1 0.5 0.648 0.65 0.296 0.97-1 0.97-1.295 0-1.616-0.32-0.968-0.97 0.323-0.32 0.637-0.5 0.968-0.5zm99.968 0.41c0.17 0.01 0.37 0.05 0.63 0.15 1.1 0.42 1.32 1.42 0.84 3.72-0.36 1.72-0.93 3.42-1.28 3.78-1.24 1.26-5.16-2.39-5.16-4.81 0-2.08 0.28-2.27 1.94-1.38 2.64 1.42 3.38 1.28 2.72-0.43-0.28-0.74-0.19-1.08 0.31-1.03zm72.13 1.62c0.34-0.01 0.73 0.04 1.09 0.19 0.8 0.32 0.57 0.54-0.59 0.59-1.06 0.04-1.65-0.2-1.32-0.53 0.17-0.17 0.47-0.24 0.82-0.25zm-106.72 0.13c0.14-0.05 0.51 0.22 1.22 0.81 0.93 0.77 1.16 1.52 0.56 1.72-0.58 0.19-0.77 1.06-0.44 1.93 0.5 1.3 0.13 1.44-2.12 0.88-1.63-0.41-2.53-0.3-2.19 0.25 0.32 0.51-0.48 1.2-1.783 1.53-3.078 0.77-8.948 6.26-8.125 7.59 0.35 0.57 0.194 1.04-0.343 1.04-0.538 0-1.693 0.26-2.563 0.59-2.211 0.85-2.042-1.67 0.531-7.66 1.168-2.71 2.773-4.93 3.563-4.93 0.882 0 1.149-0.49 0.687-1.25-0.469-0.79-0.105-0.71 1 0.18 1.146 0.93 2.032 1.07 2.469 0.41 0.95-1.44 5.044-2.34 5.714-1.25 0.99 1.59 2.69 0.96 2.04-0.75-0.28-0.71-0.37-1.05-0.22-1.09zm45.28 0.06c0.93 0 0.88 1.34-0.6 2.62-1.12 0.98-2.06 2.32-2.06 2.94s-0.48 1.13-1.09 1.13-0.85 0.67-0.53 1.5c0.64 1.66-0.9 2.08-1.88 0.5-0.6-0.98 2.89-6.81 4.91-8.19 0.51-0.35 0.94-0.5 1.25-0.5zm-61.751 3.69c0.498 0 0.662 0.9 0.375 2-0.671 2.56-1.282 2.56-1.282 0 0-1.1 0.408-2 0.907-2zm-5.5 1.25c0.169-0.01 0.39 0.14 0.687 0.43 0.602 0.6 0.939 1.85 0.75 2.78-0.445 2.2-1.844 0.8-1.844-1.84 0-0.92 0.125-1.36 0.407-1.37zm-40.532 0.75c-0.55 0-0.715 0.45-0.375 1s1.075 1 1.625 1 0.715-0.45 0.375-1-1.075-1-1.625-1zm160.4 13.03c0.44 0.03 0.84 0.33 1.19 0.9 0.32 0.53-0.29 1.43-1.37 2-2.84 1.52-3.31 1.32-2.1-0.93 0.72-1.35 1.55-2.03 2.28-1.97zm14.1 0.15c0.07-0.02 0.16-0.02 0.25 0.07 0.33 0.33 0.35 1.21 0.06 1.93-0.32 0.8-0.55 0.54-0.59-0.62-0.04-0.79 0.07-1.3 0.28-1.38zm-23.72 1c0.14-0.08 0.25 0.2 0.28 0.85 0.04 0.84-1.31 2.34-3 3.34-3.06 1.81-3.06 1.81-1.75-0.28 0.72-1.15 1.82-2.09 2.47-2.09s1.41-0.57 1.69-1.25c0.12-0.32 0.22-0.52 0.31-0.57zm-14.91 3.07c0.28 0 0.6 0.11 1 0.28 0.96 0.4 2.83 0.67 4.16 0.59 2.38-0.14 2.39-0.12 0.5 1.97-1.05 1.16-4.55 3.46-7.78 5.09l-5.85 2.97 3.35-4.09c2.61-3.18 3.87-3.98 5.62-3.56 1.24 0.29 2.25 0.06 2.25-0.5 0-0.94-1.4-1.42-3.25-1.13-0.41 0.07-0.75-0.39-0.75-1 0-0.42 0.29-0.63 0.75-0.62zm-5.9 3.93c0.09 0.02 0.15 0.13 0.15 0.35 0.03 1.61-8.22 9.16-10.75 9.84-1.24 0.33-3.15 0.88-4.25 1.19s-2 0.17-2-0.31c0-1.4 2.94-4.89 2.97-3.54 0.02 0.7 0.72 0.94 1.63 0.6 0.99-0.38 1.39-1.34 1.06-2.6-0.29-1.09 0.18-2.67 1.03-3.53 1.4-1.4 1.62-1.39 2.47 0.13 1.14 2.04 3.02 2.25 2.25 0.25-0.41-1.06 0.01-1.27 1.62-0.85 1.32 0.35 2.53 0 3.07-0.84 0.3-0.48 0.58-0.71 0.75-0.69zm-155.88 3.78c0.223-0.11 0.869 0.25 1.844 1.22 0.933 0.94 1.187 0.91 1.187-0.12 0-1.06 0.296-1.06 1.5-0.06 0.825 0.68 1.5 1.57 1.5 2 0 1.91-2.786 1.54-4.718-0.63-1.208-1.36-1.6-2.26-1.313-2.41zm56.031 0.04c1.38 0 1.269 2.32-0.187 3.78-0.933 0.93-0.904 1.22 0.125 1.22 1.044 0 1.048 0.28 0.094 1.43-1.261 1.52-0.631 3.57 1.093 3.57 0.55 0 0.715-0.45 0.375-1s-0.145-1 0.438-1c0.582 0 1.062 0.43 1.062 1 0 1.28 5.234 0.1 6.25-1.41 0.452-0.67 0.741-0.42 0.75 0.66 0.022 2.46 1.666 2.18 2.344-0.41 0.478-1.83 0.815-1.99 2.125-0.91 0.853 0.71 1.531 2.16 1.531 3.19 0 1.76-1.666 2.3-6.656 2.16-0.645-0.02-1.439 0.98-1.75 2.22-0.615 2.44-4.306 3.12-6.125 1.12-3.736-4.11-5.6-7.92-5.031-10.19 0.339-1.35 1.054-2.43 1.594-2.43 0.539 0 0.968-0.68 0.968-1.5 0-0.83 0.45-1.5 1-1.5zm67.628 3.06c0.62-0.05 1.69 0.61 2.37 1.44 1.69 2.03 5.98 1.89 7.66-0.25 0.78-0.99 0.47 0.63-0.72 3.75-2.48 6.5-2.64 6.7-4.09 5.25-1.41-1.41-5.85 1.22-5.85 3.46 0 1.07-0.36 1.23-1.25 0.54-1.97-1.56-4.67-1.1-5.31 0.9-0.32 1.01-1.02 1.85-1.56 1.85-0.55 0-0.72 0.45-0.38 1s-0.1 1-1 1-1.47-0.57-1.28-1.25c1.19-4.23 5.13-16.34 5.44-16.69 0.2-0.24 1.08 0.44 1.94 1.5 1.04 1.3 1.69 1.55 2.03 0.75 0.27-0.66 1.15-0.96 1.93-0.66 0.79 0.3 1.44 0.1 1.44-0.47 0-0.56-0.56-1.25-1.25-1.53-0.78-0.32-0.83-0.54-0.12-0.59zm-29.35 1.31c0.1-0.04 0.28 0.14 0.53 0.5 0.57 0.8 1.52 1.05 2.25 0.59 0.95-0.58 1.11-0.17 0.63 1.63-0.35 1.32-0.65 4.32-0.66 6.66-0.01 5.06-1.15 5.3-5 1.09-1.8-1.97-3.43-2.91-4.4-2.53-0.9 0.34-1.98-0.14-2.57-1.13-0.68-1.15-1.257-1.33-1.776-0.59-1.756 2.51-7.282 0.69-7.282-2.41 0-1.26 0.323-1.19 1.594 0.38 0.866 1.07 1.286 1.37 0.938 0.69-0.856-1.69 1.985-1.63 8.066 0.21 6.13 1.86 6.4 1.88 6.4-0.03 0-0.85 0.46-1.26 1.03-0.9 0.68 0.41 0.85-0.38 0.44-2.22-0.27-1.24-0.34-1.87-0.19-1.94zm13.69 0.94c0.31-0.04 0.73 0.08 1.28 0.25 1.24 0.38 2.42 0.84 2.63 1.03 0.21 0.18-0.78 3.39-2.19 7.12l-2.56 6.79-0.07-7.82c-0.04-5.74-0.03-7.26 0.91-7.37zm18 0.9c-1.06 0.05-1.96 0.95-1.41 1.85 0.32 0.51 0.96 0.94 1.44 0.94 1.4 0 2.15-1.81 1.03-2.5-0.33-0.21-0.71-0.3-1.06-0.29zm-113.5 0.82c0.276 0 0.635 0.32 1.031 0.97 0.34 0.55 0.145 1-0.437 1-0.583 0-1.063-0.45-1.063-1 0-0.65 0.193-0.97 0.469-0.97zm33.813 1.06c0.088-0.08 0.37 0.15 0.875 0.66 1.627 1.61 3.162 1.61 2.343 0-0.348-0.69 0.091-0.37 0.969 0.71 0.878 1.09 1.35 2.6 1.063 3.35-0.288 0.75-0.532 1.81-0.532 2.37 0 0.57-0.648 0.77-1.437 0.47-0.79-0.3-1.577-0.17-1.75 0.31s-1.547-0.01-3.063-1.12c-2.996-2.2-2.799-3.84 0.438-3.84 1.537 0 1.875-0.44 1.375-1.75-0.267-0.71-0.37-1.09-0.281-1.16zm-28.282 4.91c-0.55 0-1 0.45-1 1s0.45 1 1 1 1-0.45 1-1-0.45-1-1-1zm34.282 0.09c0.084-0.09 0.35 0.13 0.843 0.62 0.684 0.68 0.996 1.51 0.688 1.82-0.308 0.3-0.875-0.27-1.25-1.25-0.271-0.72-0.366-1.11-0.281-1.19zm80.656 15.41l0.03 2.68c0.02 1.48-0.57 3.27-1.31 4-0.74 0.74-1.51 1.92-1.75 2.63s-0.76 0.96-1.16 0.56c-1.41-1.41-0.72-4.29 1.72-7.06l2.47-2.81zm3.56 0.06c0.29-0.03 0.54 0.39 0.78 1.34 0.3 1.15 0.16 2.1-0.31 2.1-1.36 0-1.89-1.49-1.03-2.88 0.22-0.35 0.39-0.54 0.56-0.56zm-49.28 0.75c0.15 0 0.65 0.28 1.53 0.81 1.24 0.75 2.25 1.71 2.25 2.13 0 0.41 0.68 0.75 1.5 0.75 0.83 0 1.44-0.34 1.38-0.75-0.44-2.77 0.23-3.53 1.53-1.75 1.57 2.14 1.03 13.53-0.69 14.65-0.55 0.36-0.71 1.37-0.37 2.25 0.33 0.88 0.15 1.6-0.38 1.6-1.42 0-1.18 2.76 0.28 3.25 0.69 0.22 1.29 1.59 1.31 3.06 0.07 3.88-1.05 3.27-2.43-1.35-0.67-2.21-2.98-7.69-5.16-12.18-2.52-5.22-3.61-8.55-3-9.16s1.52-0.47 2.5 0.34c1.27 1.06 1.53 1.02 1.53-0.15 0-0.78-0.56-2.03-1.25-2.75-0.49-0.52-0.68-0.76-0.53-0.75zm25.72 0.09c0.83 0 1.91 0.05 3.28 0.13 3.32 0.19 6.22 0.56 6.47 0.81s-0.23 1.79-1.06 3.41c-1.07 2.05-2.19 2.86-3.78 2.75-1.25-0.1-3.32 0.87-4.6 2.15s-2.46 2.35-2.62 2.35c-1.6 0-2.15-5.39-1-9.66 0.39-1.46 0.81-1.93 3.31-1.94zm-37.188 3.6c1.815 0 5.399 4.84 7.344 9.96 1.104 2.9 1.884 5.41 1.714 5.57-0.39 0.38-7.058-5.58-8.745-7.82-1.149-1.52-1.099-1.96 0.406-3.06 1.649-1.2 1.639-1.39 0.063-2.97-0.926-0.92-1.275-1.68-0.782-1.68zm77.598 1.34c0.25 0.04 0.14 0.24-0.35 0.53-2.43 1.45-6.64 2.5-5.5 1.38 0.55-0.55 2.35-1.28 4-1.63 0.98-0.21 1.59-0.32 1.85-0.28zm-90.066 1.03c0.299 0 0.564 0.34 0.968 1.06 0.488 0.87 1.293 1.32 1.813 1s1.232 0.14 1.562 1 1.052 1.57 1.594 1.57 2.102 0.9 3.5 2c3.148 2.47 2.246 2.46-4.406-0.1-3.689-1.42-5.051-2.44-4.656-3.47 0.305-0.79 0.077-1.43-0.532-1.43-0.608 0-1.125 0.51-1.125 1.15s-0.271 0.89-0.625 0.53c-0.353-0.35-0.068-1.34 0.657-2.22 0.601-0.72 0.95-1.09 1.25-1.09zm71.066 0.13c0.36-0.08 1.06 0.06 2.12 0.46 1.36 0.52 2.69 0.58 2.97 0.13 0.28-0.46 1.7-0.59 3.16-0.31 2.28 0.43 2.41 0.61 0.93 1.43-2.63 1.48-6.05 1.59-7.87 0.25-1.52-1.11-1.91-1.84-1.31-1.96zm-123.88 1.53c-0.276 0-0.469 0.32-0.469 0.97 0 0.55 0.48 1 1.063 1 0.582 0 0.777-0.45 0.437-1-0.396-0.65-0.755-0.97-1.031-0.97zm42.938 0.31c0.251 0.03 0.613 0.25 1.062 0.62 0.801 0.67 1.902 0.93 2.438 0.6s1.248-0.16 1.593 0.4c0.346 0.56-0.192 0.98-1.187 0.94-2.636-0.11-4.313-0.94-4.313-2.12 0-0.32 0.155-0.47 0.407-0.44zm72.841 14.19c0.27 0.01 0.74 0.29 1.25 0.81 2.14 2.13 1.86 3.31-0.75 3.22-1.58-0.06-2.34 0.56-2.56 2.09-0.17 1.2-1.04 2.77-1.94 3.5-1.41 1.15-1.53 1.09-0.94-0.5 0.38-1.01 0.69-2.96 0.69-4.34 0-1.67 0.67-2.69 2-3.03 1.1-0.29 2-0.95 2-1.47 0-0.2 0.09-0.29 0.25-0.28zm-14.59 2.18c1.76 0.06 4.33 1.85 3.78 3.29-0.32 0.82-1.48 5.55-2.56 10.5-1.09 4.95-2.38 10.8-2.88 13-0.64 2.86-0.84-0.13-0.65-10.54 0.14-7.99 0.58-15.03 0.96-15.65 0.27-0.44 0.76-0.62 1.35-0.6zm-35.22 21.85c0.675-0.01 1.864 0.12 3.781 0.34 0.393 0.05 1.23 1.04 1.844 2.19s0.963 2.19 0.781 2.34c-0.833 0.7-5.479-1.64-6.5-3.28-0.73-1.17-1.032-1.58 0.094-1.59zm-52.156 1.53c0.084-0.09 0.35 0.13 0.843 0.62 0.684 0.68 0.996 1.51 0.688 1.82-0.308 0.3-0.875-0.27-1.25-1.25-0.271-0.72-0.366-1.11-0.281-1.19zm-15.407 4.91c-1.251 0-1.067 1.37 0.344 2.78 1.605 1.6 1.673 1.55 1.063-0.78-0.288-1.1-0.921-2-1.407-2z"
       style="fill:#ffffff;fill-opacity:1" />
  </g>
  <metadata
     id="metadata120">
    <rdf:RDF>
      <cc:Work>
        <dc:format>image/svg+xml</dc:format>
        <dc:type
           rdf:resource="http://purl.org/dc/dcmitype/StillImage" />
        <cc:license
           rdf:resource="http://creativecommons.org/publicdomain/zero/1.0/" />
        <dc:publisher>
          <cc:Agent
             rdf:about="http://openclipart.org/">
            <dc:title>Openclipart</dc:title>
          </cc:Agent>
        </dc:publisher>
        <dc:title>Tree silhouettes</dc:title>
        <dc:date>2007-11-20T10:29:44</dc:date>
        <dc:description>Some shapes from photos.</dc:description>
        <dc:source>http://openclipart.org/detail/8762/tree-silhouettes-by-chrisdesign-8762</dc:source>
        <dc:creator>
          <cc:Agent>
            <dc:title>Chrisdesign</dc:title>
          </cc:Agent>
        </dc:creator>
        <dc:subject>
          <rdf:Bag>
            <rdf:li>clip art</rdf:li>
            <rdf:li>clipart</rdf:li>
            <rdf:li>image</rdf:li>
            <rdf:li>media</rdf:li>
            <rdf:li>nature</rdf:li>
            <rdf:li>png</rdf:li>
            <rdf:li>public domain</rdf:li>
            <rdf:li>shape</rdf:li>
            <rdf:li>silhouette</rdf:li>
            <rdf:li>svg</rdf:li>
            <rdf:li>tree</rdf:li>
          </rdf:Bag>
        </dc:subject>
      </cc:Work>
      <cc:License
         rdf:about="http://creativecommons.org/publicdomain/zero/1.0/">
        <cc:permits
           rdf:resource="http://creativecommons.org/ns#Reproduction" />
        <cc:permits
           rdf:resource="http://creativecommons.org/ns#Distribution" />
        <cc:permits
           rdf:resource="http://creativecommons.org/ns#DerivativeWorks" />
      </cc:License>
    </rdf:RDF>
  </metadata>
</svg>
